<svg width="82" height="71" viewBox="0 0 82 71" fill="none" xmlns="http://www.w3.org/2000/svg">
<path fill-rule="evenodd" clip-rule="evenodd" d="M40.7029 2.9346C50.1925 3.57858 61.1927 0.883252 67.8253 6.61271C74.4265 12.315 69.6113 21.5436 71.2999 29.365C73.7724 40.8171 87.1692 52.3087 79.8228 62.1815C72.4186 72.1321 54.6389 71.4461 40.7029 70.4846C28.0065 69.6086 15.6609 65.4199 7.52891 57.1938C0.00689779 49.5847 -0.177299 39.2481 0.0539311 29.365C0.278838 19.7521 -0.252893 8.4977 8.80603 2.6075C17.5427 -3.07317 29.6851 2.1869 40.7029 2.9346Z" fill="#F2F4F7"/>
<g clip-path="url(#clip0_6_486)">
<path d="M42.5074 37.0037H41V38.7851H42.5074V37.0037Z" fill="url(#paint0_linear_6_486)"/>
<path d="M45.5292 37.0037H44.0219V38.7851H45.5292V37.0037Z" fill="url(#paint1_linear_6_486)"/>
<path d="M39.5074 37H38V38.7815H39.5074V37Z" fill="url(#paint2_linear_6_486)"/>
<path d="M58.4587 34.8565C57.2755 34.8607 56.1252 35.2274 55.1783 35.9022V26.6261C55.1783 26.5276 55.1372 26.4333 55.064 26.3637C54.9909 26.2941 54.8916 26.255 54.7882 26.255H45.0798C45.7359 25.3724 46.0861 24.317 46.0817 23.2361C46.0802 22.4116 45.8744 21.5991 45.481 20.8645C45.0876 20.1299 44.5176 19.4938 43.8174 19.0079C43.1172 18.522 42.3064 18.1999 41.4508 18.0678C40.5952 17.9357 39.7189 17.9972 38.893 18.2475C38.0672 18.4978 37.3149 18.9297 36.6974 19.5082C36.0798 20.0867 35.6143 20.7955 35.3387 21.5771C35.063 22.3587 34.9849 23.1912 35.1108 24.0069C35.2367 24.8226 35.5629 25.5985 36.0631 26.2719H26.3813C26.3305 26.2719 26.2802 26.2815 26.2334 26.3003C26.1865 26.319 26.1441 26.3465 26.1086 26.381C26.0731 26.4156 26.0452 26.4566 26.0265 26.5016C26.0079 26.5465 25.9989 26.5946 26.0001 26.6429V53.628C26.0001 53.7249 26.04 53.8181 26.1112 53.8874C26.1825 53.9568 26.2794 53.9968 26.3813 53.999H36.7458C36.8492 53.999 36.9484 53.9599 37.0216 53.8903C37.0948 53.8208 37.1359 53.7264 37.1359 53.628C37.1367 53.5772 37.1261 53.5268 37.1047 53.4802C37.0833 53.4336 37.0516 53.392 37.0117 53.3581C36.5082 52.8104 36.1517 52.1547 35.9728 51.4473C35.7938 50.7398 35.7978 50.0017 35.9843 49.296C36.1708 48.5904 36.5344 47.9382 37.0438 47.3954C37.5532 46.8525 38.1933 46.4352 38.9094 46.1791C39.6254 45.9229 40.396 45.8357 41.1553 45.9247C41.9145 46.0138 42.6398 46.2765 43.269 46.6903C43.8982 47.1042 44.4125 47.657 44.768 48.3013C45.1236 48.9455 45.3096 49.6621 45.3104 50.3898C45.3115 51.4951 44.8819 52.5617 44.1046 53.3834C44.0564 53.4374 44.025 53.5031 44.0141 53.5732C44.0031 53.6432 44.013 53.7148 44.0425 53.7798C44.0732 53.8449 44.123 53.9002 44.1859 53.9391C44.2488 53.978 44.3221 53.9988 44.3972 53.999H54.7616C54.8181 54.0029 54.8749 53.9951 54.9279 53.976C54.9809 53.9569 55.029 53.9271 55.0686 53.8885C55.1083 53.85 55.1386 53.8037 55.1576 53.7529C55.1765 53.7021 55.1836 53.6479 55.1783 53.5942V44.3181C56.1299 45.0038 57.2915 45.3741 58.4853 45.3722C59.9479 45.3722 61.3506 44.8196 62.3848 43.8359C63.419 42.8523 64 41.5181 64 40.127C64 38.7359 63.419 37.4018 62.3848 36.4181C61.3506 35.4344 59.9479 34.8818 58.4853 34.8818L58.4587 34.8565ZM58.4587 44.6048C57.2567 44.607 56.0992 44.1727 55.2226 43.3905C55.1493 43.328 55.0551 43.2921 54.9566 43.2893H54.7616C54.6581 43.2893 54.5589 43.3284 54.4857 43.398C54.4126 43.4676 54.3715 43.562 54.3715 43.6604V53.2569H45.1862C45.7707 52.4044 46.079 51.4075 46.0728 50.3898C46.1026 49.6838 45.9821 48.9794 45.7187 48.3189C45.4552 47.6583 45.0541 47.0552 44.5395 46.5457C44.0248 46.0362 43.4073 45.6308 42.7239 45.3539C42.0406 45.077 41.3054 44.9343 40.5626 44.9343C39.8198 44.9343 39.0846 45.077 38.4012 45.3539C37.7179 45.6308 37.1003 46.0362 36.5857 46.5457C36.0711 47.0552 35.67 47.6583 35.4065 48.3189C35.143 48.9794 35.0226 49.6838 35.0523 50.3898C35.0462 51.4075 35.3545 52.4044 35.9389 53.2569H26.8069V44.3097C27.6277 44.8874 28.6011 45.237 29.6185 45.3195C30.6359 45.4021 31.6575 45.2143 32.5693 44.7772C33.4812 44.34 34.2475 43.6706 34.7829 42.8437C35.3183 42.0167 35.6018 41.0645 35.6018 40.0933C35.6018 39.1221 35.3183 38.1699 34.7829 37.3429C34.2475 36.5159 33.4812 35.8466 32.5693 35.4094C31.6575 34.9723 30.6359 34.7845 29.6185 34.867C28.6011 34.9496 27.6277 35.2992 26.8069 35.8769V26.9718H36.8256C36.8764 26.9729 36.9269 26.9644 36.9742 26.9467C37.0215 26.9289 37.0645 26.9024 37.1009 26.8686C37.1372 26.8348 37.1661 26.7945 37.1858 26.7499C37.2055 26.7054 37.2157 26.6575 37.2157 26.6092V26.5417C37.2152 26.4476 37.1772 26.3572 37.1093 26.2887C36.4771 25.6466 36.056 24.8427 35.8979 23.976C35.7398 23.1092 35.8516 22.2174 36.2195 21.4103C36.5874 20.6032 37.1954 19.916 37.9686 19.4332C38.7418 18.9505 39.6466 18.6933 40.5715 18.6933C41.4964 18.6933 42.4011 18.9505 43.1743 19.4332C43.9475 19.916 44.5555 20.6032 44.9234 21.4103C45.2913 22.2174 45.4031 23.1092 45.245 23.976C45.0869 24.8427 44.6659 25.6466 44.0337 26.2887C43.9657 26.3572 43.9277 26.4476 43.9273 26.5417V26.6092C43.9296 26.7061 43.9717 26.7984 44.0446 26.8661C44.1175 26.9339 44.2154 26.9718 44.3174 26.9718H54.3715V36.5346C54.3715 36.633 54.4126 36.7274 54.4857 36.797C54.5589 36.8666 54.6581 36.9057 54.7616 36.9057H54.9566C55.0541 36.906 55.1485 36.8731 55.2226 36.8129C55.7863 36.3115 56.4703 35.9487 57.2151 35.7562C57.9599 35.5637 58.7429 35.5473 59.4959 35.7084C60.2489 35.8695 60.949 36.2033 61.5354 36.6807C62.1217 37.1581 62.5765 37.7645 62.86 38.4473C63.1436 39.13 63.2474 39.8684 63.1623 40.598C63.0772 41.3276 62.8059 42.0264 62.372 42.6335C61.9381 43.2406 61.3547 43.7376 60.6726 44.0812C59.9906 44.4247 59.2305 44.6045 58.4587 44.6048Z" fill="url(#paint3_linear_6_486)" stroke="url(#paint4_linear_6_486)" stroke-width="0.75"/>
</g>
<defs>
<linearGradient id="paint0_linear_6_486" x1="41" y1="38.7851" x2="42.7569" y2="37.2985" gradientUnits="userSpaceOnUse">
<stop stop-color="#344054"/>
<stop offset="1" stop-color="#475467"/>
</linearGradient>
<linearGradient id="paint1_linear_6_486" x1="44.0218" y1="38.7851" x2="45.7787" y2="37.2985" gradientUnits="userSpaceOnUse">
<stop stop-color="#344054"/>
<stop offset="1" stop-color="#475467"/>
</linearGradient>
<linearGradient id="paint2_linear_6_486" x1="38" y1="38.7814" x2="39.7569" y2="37.2948" gradientUnits="userSpaceOnUse">
<stop stop-color="#344054"/>
<stop offset="1" stop-color="#475467"/>
</linearGradient>
<linearGradient id="paint3_linear_6_486" x1="25.9994" y1="53.9998" x2="61.947" y2="16.055" gradientUnits="userSpaceOnUse">
<stop stop-color="#344054"/>
<stop offset="1" stop-color="#475467"/>
</linearGradient>
<linearGradient id="paint4_linear_6_486" x1="25.9994" y1="53.9998" x2="61.947" y2="16.055" gradientUnits="userSpaceOnUse">
<stop stop-color="#344054"/>
<stop offset="1" stop-color="#475467"/>
</linearGradient>
<clipPath id="clip0_6_486">
<rect width="46" height="46" fill="white" transform="translate(18 13)"/>
</clipPath>
</defs>
</svg>
