<svg width="83" height="71" viewBox="0 0 83 71" fill="none" xmlns="http://www.w3.org/2000/svg">
<path fill-rule="evenodd" clip-rule="evenodd" d="M47.0287 0.0334496C57.1531 0.598211 64.793 8.78674 71.4861 16.6806C77.6347 23.9324 82.3437 32.381 82.637 42.0303C82.9397 51.9911 81.0119 63.4007 73.077 69.0289C65.6124 74.3235 56.0737 67.2736 47.0287 67.2871C37.956 67.3006 28.9362 73.4819 20.9054 69.1066C10.77 63.5846 0.910198 53.8957 0.670701 42.0303C0.429495 30.0802 11.1061 21.6629 19.789 13.7969C27.6955 6.63413 36.5428 -0.551469 47.0287 0.0334496Z" fill="#F2F4F7"/>
<path d="M48.5667 30.204C48.5653 28.5916 48.1594 27.0158 47.4004 25.6759C46.6413 24.336 45.5632 23.2921 44.3023 22.6762C43.0413 22.0603 41.6542 21.9 40.3162 22.2156C38.9782 22.5312 37.7494 23.3085 36.7851 24.4492C35.8209 25.59 35.1644 27.043 34.8987 28.6246C34.6331 30.2062 34.7701 31.8454 35.2926 33.3349C35.815 34.8245 36.6994 36.0976 37.834 36.9932C38.9685 37.8889 40.3023 38.367 41.6667 38.367C43.4973 38.3647 45.2523 37.5037 46.5461 35.9731C47.8399 34.4425 48.5667 32.3675 48.5667 30.204ZM41.6667 37.5557C40.4363 37.5557 39.2336 37.1245 38.2107 36.3167C37.1877 35.5089 36.3904 34.3607 35.9196 33.0174C35.4487 31.6741 35.3255 30.1959 35.5656 28.7698C35.8056 27.3437 36.3981 26.0338 37.268 25.0057C38.138 23.9775 39.2464 23.2773 40.4531 22.9937C41.6598 22.71 42.9105 22.8556 44.0472 23.412C45.1839 23.9684 46.1554 24.9107 46.8389 26.1197C47.5224 27.3287 47.8873 28.75 47.8873 30.204C47.8854 32.1531 47.2294 34.0218 46.0632 35.4C44.897 36.7782 43.3159 37.5535 41.6667 37.5557Z" fill="url(#paint0_linear_6_492)" stroke="url(#paint1_linear_6_492)" stroke-width="0.75" stroke-miterlimit="10"/>
<path d="M53.0535 51.1299L48.5596 39.4208C48.6455 39.1718 48.7676 38.9425 48.9205 38.7434C49.2327 38.4467 49.5909 38.2251 49.975 38.091C50.5798 37.9104 51.1172 37.4988 51.5036 36.9201C51.7479 36.2314 51.7903 35.4659 51.6239 34.7455C51.5302 34.2796 51.5157 33.7963 51.5815 33.3237C51.7238 32.8944 51.9326 32.5002 52.1971 32.1612C52.6526 31.6292 52.942 30.9304 53.0181 30.179C52.942 29.4276 52.6526 28.7288 52.1971 28.1968C51.9313 27.8622 51.7223 27.4704 51.5815 27.0426C51.5157 26.5673 51.5302 26.0812 51.6239 25.6125C51.7838 24.9025 51.7416 24.1501 51.5036 23.4714C51.1226 22.8771 50.5846 22.4503 49.975 22.2586C49.5921 22.1211 49.2344 21.8998 48.9205 21.6063C48.682 21.2441 48.502 20.8329 48.3898 20.3935C48.2322 19.6706 47.8701 19.0331 47.3636 18.587C47.0898 18.4056 46.7784 18.3187 46.4648 18.3361C46.1609 18.3433 45.858 18.3797 45.559 18.4448C45.2851 18.498 45.0085 18.5288 44.731 18.5368C44.6024 18.5386 44.474 18.5217 44.3488 18.4866C43.9856 18.3232 43.6536 18.0759 43.3722 17.759C42.9148 17.2139 42.3126 16.8713 41.6667 16.7888C41.0309 16.8787 40.4396 17.2207 39.9895 17.759C39.707 18.0741 39.3752 18.3213 39.0128 18.4866C38.8877 18.5217 38.7593 18.5386 38.6307 18.5368C38.3438 18.5303 38.0576 18.4996 37.7744 18.4448C37.4731 18.3792 37.1678 18.3429 36.8615 18.3361C36.5479 18.3187 36.2365 18.4056 35.9627 18.587C35.4588 19.0344 35.0993 19.6718 34.9436 20.3935C34.8273 20.8436 34.64 21.2636 34.3916 21.6314C34.0778 21.9249 33.7201 22.1461 33.3371 22.2837C32.7275 22.4754 32.1895 22.9022 31.8085 23.4965C31.5658 24.1738 31.5234 24.9282 31.6882 25.6375C31.782 26.1063 31.7964 26.5924 31.7307 27.0677C31.5898 27.4955 31.3808 27.8873 31.115 28.2219C30.6595 28.7539 30.3701 29.4526 30.2941 30.2041C30.3701 30.9555 30.6595 31.6543 31.115 32.1863C31.3795 32.5252 31.5883 32.9195 31.7307 33.3488C31.7964 33.8214 31.782 34.3047 31.6882 34.7706C31.5234 35.4828 31.5658 36.2398 31.8085 36.9201C32.2004 37.5034 32.7459 37.9155 33.3584 38.091C33.743 38.2276 34.1013 38.4521 34.4128 38.7517C34.5745 38.9619 34.7017 39.2058 34.7879 39.471L30.2799 51.0965C30.2554 51.1626 30.2457 51.2351 30.252 51.3069C30.2582 51.3787 30.28 51.4474 30.3153 51.5063C30.3525 51.5627 30.4012 51.607 30.457 51.6348C30.5128 51.6626 30.5736 51.6731 30.6338 51.6652L34.5968 51.0546L36.7978 55.0023C36.8296 55.0562 36.8719 55.1004 36.9212 55.1309C36.9704 55.1615 37.0252 55.1776 37.0808 55.1779C37.1412 55.1715 37.1991 55.1465 37.2488 55.1055C37.2985 55.0644 37.3382 55.0086 37.3639 54.9437L41.6101 43.9037L45.8562 54.9437C45.8807 55.0097 45.9201 55.0664 45.97 55.1077C46.0199 55.149 46.0785 55.1733 46.1393 55.1779C46.1949 55.1776 46.2497 55.1615 46.299 55.1309C46.3483 55.1004 46.3906 55.0562 46.4224 55.0023L48.6233 51.0546L52.5864 51.6652C52.6465 51.6731 52.7074 51.6626 52.7631 51.6348C52.8189 51.607 52.8677 51.5627 52.9048 51.5063C52.9552 51.4643 52.9954 51.4075 53.0215 51.3414C53.0475 51.2754 53.0586 51.2025 53.0535 51.1299ZM37.0242 53.9819L35.0498 50.4357C35.0142 50.3721 34.964 50.3219 34.9051 50.2908C34.8462 50.2597 34.781 50.249 34.7171 50.2601L31.1787 50.8037L35.163 40.5248C35.3177 41.0578 35.616 41.5161 36.0122 41.8295C36.2872 42.0073 36.5978 42.094 36.911 42.0805C37.2005 42.0669 37.4889 42.0305 37.7744 41.9717C38.0481 41.916 38.3248 41.8824 38.6024 41.8714C38.731 41.8696 38.8594 41.8865 38.9845 41.9215C39.3442 42.0932 39.675 42.3397 39.9612 42.6492C40.2868 42.9952 40.6571 43.2776 41.0581 43.4855L37.0242 53.9819ZM41.6667 42.8165C41.1901 42.7098 40.7527 42.4324 40.4141 42.0219C40.0601 41.6349 39.6437 41.3362 39.1898 41.1437C39.0092 41.0911 38.8237 41.0658 38.6378 41.0685C38.3268 41.0752 38.0167 41.1116 37.7107 41.1772C37.4416 41.2303 37.1696 41.2611 36.8968 41.2692C36.7038 41.2824 36.5112 41.2363 36.3378 41.1354C35.9861 40.7633 35.7392 40.273 35.6301 39.7303C35.4804 39.1732 35.24 38.6561 34.9224 38.2081C34.5449 37.8346 34.11 37.5506 33.6415 37.3717C33.1816 37.2448 32.7662 36.9526 32.4525 36.5354C32.2984 36.012 32.2861 35.4449 32.4171 34.9128C32.5161 34.336 32.5161 33.7416 32.4171 33.1648C32.2551 32.6254 32.0023 32.1304 31.6741 31.7095C31.3241 31.3117 31.0889 30.7938 31.0018 30.2292C31.0907 29.6678 31.3258 29.1532 31.6741 28.7572C31.9995 28.3338 32.2519 27.8395 32.4171 27.3019C32.5159 26.7223 32.5159 26.1252 32.4171 25.5455C32.2682 25.0014 32.2707 24.4152 32.4242 23.8728C32.7379 23.4556 33.1533 23.1634 33.6131 23.0365C34.0829 22.861 34.5183 22.5767 34.8941 22.2001C35.213 21.7563 35.4536 21.2416 35.6018 20.6863C35.7109 20.1436 35.9578 19.6533 36.3095 19.2812C36.4821 19.1769 36.6749 19.1279 36.8685 19.139C37.1415 19.1501 37.4134 19.1837 37.6824 19.2394C37.9889 19.3008 38.2987 19.3371 38.6095 19.3481C38.7959 19.3524 38.9819 19.3243 39.1615 19.2645C39.6162 19.0886 40.0354 18.8039 40.3928 18.4281C40.7267 18.0023 41.1645 17.7099 41.6455 17.5917C42.1264 17.7099 42.5642 18.0023 42.8981 18.4281C43.2556 18.8039 43.6747 19.0886 44.1295 19.2645C44.309 19.3243 44.495 19.3524 44.6815 19.3481C44.9922 19.3371 45.302 19.3008 45.6085 19.2394C45.8775 19.1837 46.1495 19.1501 46.4224 19.139C46.616 19.1279 46.8088 19.1769 46.9815 19.2812C47.3331 19.6533 47.58 20.1436 47.6891 20.6863C47.8373 21.2416 48.0779 21.7563 48.3968 22.2001C48.7726 22.5767 49.208 22.861 49.6778 23.0365C50.1377 23.1634 50.553 23.4556 50.8667 23.8728C51.0088 24.4006 51.0088 24.9675 50.8667 25.4954C50.7679 26.075 50.7679 26.6721 50.8667 27.2517C51.032 27.7893 51.2844 28.2836 51.6098 28.707C51.9581 29.103 52.1931 29.6176 52.2821 30.179C52.1949 30.7436 51.9597 31.2615 51.6098 31.6594C51.2815 32.0802 51.0287 32.5752 50.8667 33.1146C50.7678 33.6914 50.7678 34.2858 50.8667 34.8626C51.0092 35.3904 51.0092 35.9574 50.8667 36.4852C50.553 36.9024 50.1377 37.1946 49.6778 37.3215C49.2093 37.5004 48.7743 37.7844 48.3968 38.1579C48.0792 38.6059 47.8388 39.123 47.6891 39.6801C47.58 40.2228 47.3331 40.7131 46.9815 41.0852C46.808 41.1862 46.6154 41.2323 46.4224 41.219C46.1496 41.2109 45.8777 41.1802 45.6085 41.127C45.3025 41.0614 44.9924 41.0251 44.6815 41.0183C44.4955 41.0156 44.31 41.0409 44.1295 41.0935C43.673 41.2851 43.2542 41.5838 42.8981 41.9717C42.5708 42.3962 42.1409 42.6911 41.6667 42.8165ZM48.6162 50.2601C48.5524 50.249 48.4872 50.2597 48.4283 50.2908C48.3694 50.3219 48.3192 50.3721 48.2836 50.4357L46.3092 53.9819L42.247 43.4939C42.648 43.2859 43.0183 43.0036 43.3439 42.6575C43.629 42.3464 43.9601 42.0998 44.3205 41.9299C44.4457 41.8948 44.574 41.878 44.7027 41.8797C44.9803 41.8908 45.2569 41.9243 45.5307 41.9801C45.8325 42.0416 46.1375 42.0779 46.4436 42.0888C46.7569 42.1023 47.0674 42.0156 47.3424 41.8379C47.7497 41.516 48.0537 41.0418 48.2058 40.4914L52.1759 50.8037L48.6162 50.2601Z" fill="url(#paint2_linear_6_492)" stroke="url(#paint3_linear_6_492)" stroke-width="0.75" stroke-miterlimit="10"/>
<path d="M46.0544 27.3269C46.0269 27.2857 45.9926 27.2514 45.9537 27.226C45.9148 27.2007 45.872 27.1848 45.8278 27.1794C45.7836 27.1739 45.7389 27.179 45.6964 27.1943C45.6539 27.2096 45.6144 27.2348 45.5802 27.2684L40.039 32.6629L37.8735 29.7273C37.8443 29.687 37.8087 29.6539 37.7687 29.63C37.7286 29.6061 37.685 29.5918 37.6402 29.5879C37.5955 29.584 37.5505 29.5906 37.508 29.6074C37.4654 29.6241 37.4261 29.6507 37.3922 29.6855C37.325 29.7563 37.2837 29.8552 37.2771 29.9614C37.2705 30.0675 37.2991 30.1725 37.3569 30.2542L39.7418 33.4742C39.7745 33.5183 39.8148 33.5537 39.8599 33.5782C39.905 33.6027 39.954 33.6157 40.0036 33.6164C40.081 33.614 40.1556 33.5817 40.2159 33.5244L46.0119 27.8789C46.0777 27.811 46.1188 27.7158 46.1267 27.613C46.1346 27.5102 46.1087 27.4078 46.0544 27.3269Z" fill="url(#paint4_linear_6_492)" stroke="url(#paint5_linear_6_492)" stroke-width="0.75" stroke-miterlimit="10"/>
<defs>
<linearGradient id="paint0_linear_6_492" x1="34.7664" y1="38.3669" x2="50.8507" y2="24.7571" gradientUnits="userSpaceOnUse">
<stop stop-color="#344054"/>
<stop offset="1" stop-color="#475467"/>
</linearGradient>
<linearGradient id="paint1_linear_6_492" x1="34.7664" y1="38.3669" x2="50.8507" y2="24.7571" gradientUnits="userSpaceOnUse">
<stop stop-color="#344054"/>
<stop offset="1" stop-color="#475467"/>
</linearGradient>
<linearGradient id="paint2_linear_6_492" x1="30.2498" y1="55.1777" x2="63.9625" y2="35.151" gradientUnits="userSpaceOnUse">
<stop stop-color="#344054"/>
<stop offset="1" stop-color="#475467"/>
</linearGradient>
<linearGradient id="paint3_linear_6_492" x1="30.2498" y1="55.1777" x2="63.9625" y2="35.151" gradientUnits="userSpaceOnUse">
<stop stop-color="#344054"/>
<stop offset="1" stop-color="#475467"/>
</linearGradient>
<linearGradient id="paint4_linear_6_492" x1="37.276" y1="33.6164" x2="43.4024" y2="25.1945" gradientUnits="userSpaceOnUse">
<stop stop-color="#344054"/>
<stop offset="1" stop-color="#475467"/>
</linearGradient>
<linearGradient id="paint5_linear_6_492" x1="37.276" y1="33.6164" x2="43.4024" y2="25.1945" gradientUnits="userSpaceOnUse">
<stop stop-color="#344054"/>
<stop offset="1" stop-color="#475467"/>
</linearGradient>
</defs>
</svg>
