<svg width="82" height="71" viewBox="0 0 82 71" fill="none" xmlns="http://www.w3.org/2000/svg">
<path fill-rule="evenodd" clip-rule="evenodd" d="M36.9996 0.552901C46.3068 1.22714 54.9909 3.97473 62.4001 9.93384C71.206 17.0163 80.8233 25.0293 81.8598 36.6333C82.9543 48.8874 77.5866 62.3313 67.6638 68.8656C58.6277 74.8159 47.6587 66.4677 36.9996 66.174C26.9142 65.8961 15.936 73.6334 7.90201 67.2188C-0.417986 60.5759 0.0123924 47.6156 0.00105409 36.6333C-0.0103009 25.6347 0.168044 13.4617 7.83879 5.98126C15.3619 -1.35515 26.7618 -0.188755 36.9996 0.552901Z" fill="#F2F4F7"/>
<path d="M39.4176 43.9857C39.3447 43.9142 39.2584 43.858 39.1637 43.8201C39.0689 43.7822 38.9676 43.7634 38.8656 43.7649C38.7603 43.7596 38.6551 43.7764 38.5567 43.8143C38.4583 43.8522 38.369 43.9103 38.2944 43.9849C38.2199 44.0594 38.1618 44.1488 38.1239 44.2472C38.086 44.3455 38.0691 44.4508 38.0744 44.5561C38.0729 44.6581 38.0917 44.7594 38.1296 44.8541C38.1675 44.9489 38.2238 45.0352 38.2952 45.1081C38.4462 45.2601 38.6513 45.3462 38.8656 45.3473C39.074 45.3426 39.2725 45.2577 39.4199 45.1103C39.5673 44.963 39.6521 44.7644 39.6568 44.5561C39.6557 44.3418 39.5697 44.1366 39.4176 43.9857Z" fill="url(#paint0_linear_6_474)"/>
<path d="M54.8 19.9919H46.7408C46.531 19.9919 46.3297 20.0753 46.1813 20.2237C46.033 20.3721 45.9496 20.5733 45.9496 20.7831C45.9496 20.993 46.033 21.1942 46.1813 21.3426C46.3297 21.491 46.531 21.5743 46.7408 21.5743H54.8C54.9659 21.5743 55.125 21.6403 55.2424 21.7576C55.3597 21.8749 55.4256 22.034 55.4256 22.1999V28.1615C55.4256 28.3714 55.509 28.5726 55.6573 28.721C55.8057 28.8694 56.007 28.9527 56.2168 28.9527C56.4266 28.9527 56.6279 28.8694 56.7763 28.721C56.9246 28.5726 57.008 28.3714 57.008 28.1615V22.1999C57.008 21.6143 56.7754 21.0527 56.3613 20.6387C55.9472 20.2246 55.3856 19.9919 54.8 19.9919Z" fill="url(#paint1_linear_6_474)"/>
<path d="M44.404 20.2311C44.2934 20.1234 44.1538 20.0504 44.0022 20.021C43.8507 19.9917 43.6939 20.0073 43.5511 20.066C43.4083 20.1247 43.2859 20.2238 43.1987 20.3512C43.1116 20.4786 43.0637 20.6288 43.0608 20.7831C43.0619 20.9974 43.1479 21.2025 43.3 21.3535C43.4477 21.4974 43.6458 21.5779 43.852 21.5779C44.0582 21.5779 44.2563 21.4974 44.404 21.3535C44.5561 21.2025 44.6421 20.9974 44.6432 20.7831C44.6393 20.5748 44.5533 20.3764 44.404 20.2311Z" fill="url(#paint2_linear_6_474)"/>
<path d="M54.5424 41.2439C55.0629 40.7406 55.4763 40.1371 55.7577 39.47C56.0391 38.8028 56.1827 38.0856 56.18 37.3615V31.5655C56.18 31.3557 56.0966 31.1545 55.9483 31.0061C55.7999 30.8577 55.5986 30.7743 55.3888 30.7743H49.6296C48.486 30.7743 47.3889 31.2274 46.5786 32.0343C45.7682 32.8412 45.3105 33.9363 45.3056 35.0799V37.3431C45.3117 38.7913 45.8866 40.179 46.9064 41.2071H41.7912V39.5879C41.7884 38.1477 41.2595 36.7581 40.3039 35.6806C39.3483 34.603 38.032 33.9117 36.6024 33.7367C37.2106 33.0021 37.5426 32.0777 37.5408 31.1239V27.9039C37.5408 27.9039 37.5408 27.9039 37.5408 27.7935C37.5408 27.6831 37.5408 27.6831 37.5408 27.6279V25.5671C37.5361 25.3588 37.4513 25.1602 37.3039 25.0129C37.1565 24.8655 36.958 24.7806 36.7496 24.7759H32.5912C31.7062 24.7808 30.8592 25.1358 30.2351 25.7633C29.6111 26.3908 29.2608 27.2398 29.2608 28.1247V31.1423C29.2613 32.0926 29.5859 33.0142 30.1808 33.7551C28.7512 33.9301 27.4349 34.6214 26.4793 35.699C25.5237 36.7765 24.9948 38.1661 24.992 39.6063V41.2255H22.3056V22.1999C22.3056 22.034 22.3715 21.8749 22.4888 21.7576C22.6062 21.6403 22.7653 21.5743 22.9312 21.5743H23.8696C24.0794 21.5743 24.2807 21.491 24.4291 21.3426C24.5774 21.1942 24.6608 20.993 24.6608 20.7831C24.6561 20.5748 24.5713 20.3762 24.4239 20.2289C24.2765 20.0815 24.078 19.9966 23.8696 19.9919H22.9312C22.3456 19.9919 21.784 20.2246 21.3699 20.6387C20.9558 21.0527 20.7232 21.6143 20.7232 22.1999V45.6783C20.7133 45.9744 20.7631 46.2695 20.8697 46.5459C20.9762 46.8224 21.1373 47.0745 21.3433 47.2874C21.5493 47.5003 21.7961 47.6696 22.0689 47.7851C22.3417 47.9007 22.6349 47.9601 22.9312 47.9599H34.9832V51.6399C34.0071 51.7399 33.1024 52.1974 32.4434 52.9243C31.7844 53.6513 31.4176 54.5963 31.4136 55.5775C31.4136 55.7874 31.497 55.9886 31.6453 56.137C31.7937 56.2854 31.995 56.3687 32.2048 56.3687H60.4856C60.6954 56.3687 60.8967 56.2854 61.0451 56.137C61.1934 55.9886 61.2768 55.7874 61.2768 55.5775V48.5855C61.2789 46.7404 60.5878 44.9618 59.3406 43.6021C58.0933 42.2424 56.3808 41.4008 54.5424 41.2439ZM46.888 37.3615V35.0799C46.888 34.3528 47.1768 33.6555 47.691 33.1413C48.2051 32.6272 48.9025 32.3383 49.6296 32.3383H54.5976V37.3431C54.6341 37.8718 54.5616 38.4022 54.3844 38.9016C54.2072 39.401 53.9292 39.8586 53.5677 40.246C53.2062 40.6334 52.7688 40.9423 52.2829 41.1535C51.7969 41.3646 51.2727 41.4736 50.7428 41.4736C50.2129 41.4736 49.6887 41.3646 49.2027 41.1535C48.7168 40.9423 48.2794 40.6334 47.9179 40.246C47.5564 39.8586 47.2784 39.401 47.1012 38.9016C46.924 38.4022 46.8515 37.8718 46.888 37.3431V37.3615ZM30.88 28.1247C30.8794 27.6523 31.0606 27.1977 31.386 26.8551C31.7114 26.5126 32.1561 26.3084 32.628 26.2847H35.94V27.7199C35.9424 27.8689 35.9152 28.0168 35.8599 28.1551C35.8046 28.2934 35.7223 28.4193 35.6178 28.5255C35.5134 28.6317 35.3888 28.716 35.2514 28.7736C35.114 28.8311 34.9666 28.8608 34.8176 28.8607H30.88V28.1247ZM30.88 30.3511H34.8176C35.2043 30.3504 35.5866 30.2689 35.94 30.1119V31.1423C35.8501 31.7491 35.5452 32.3034 35.0808 32.7041C34.6163 33.1048 34.0234 33.3252 33.41 33.3252C32.7966 33.3252 32.2037 33.1048 31.7392 32.7041C31.2748 32.3034 30.9699 31.7491 30.88 31.1423V30.3511ZM34.3576 35.2823L33.4376 36.2023L32.4992 35.2823H34.3576ZM26.5744 39.6063C26.5761 38.5723 26.9482 37.5732 27.6234 36.79C28.2985 36.0068 29.2319 35.4915 30.2544 35.3375L32.812 37.8951C32.9689 38.0358 33.1717 38.1143 33.3824 38.1159C33.4844 38.1174 33.5857 38.0986 33.6805 38.0608C33.7752 38.0229 33.8615 37.9666 33.9344 37.8951L36.492 35.3375C37.5161 35.4879 38.4517 36.0022 39.1275 36.7862C39.8033 37.5701 40.1741 38.5713 40.172 39.6063V41.2255H26.5744V39.6063ZM40.2088 54.6943H33.1432C33.3048 54.2289 33.6084 53.8259 34.0111 53.5421C34.4138 53.2582 34.8953 53.1078 35.388 53.1119H40.2088V54.6943ZM40.2088 48.5855V51.5295H36.5288V47.9599H40.2088C40.2272 48.1071 40.2088 48.3463 40.2088 48.5855ZM22.9312 46.3039C22.7653 46.3039 22.6062 46.238 22.4888 46.1207C22.3715 46.0034 22.3056 45.8443 22.3056 45.6783V42.8079H43.0056C41.8644 43.704 41.0183 44.9218 40.5768 46.3039H22.9312ZM59.7312 51.5295H53.6408C53.431 51.5295 53.2297 51.6129 53.0813 51.7613C52.933 51.9097 52.8496 52.1109 52.8496 52.3207C52.8496 52.5306 52.933 52.7318 53.0813 52.8802C53.2297 53.0286 53.431 53.1119 53.6408 53.1119H59.6944V54.6943H41.7912V48.5855C41.7912 47.0596 42.3948 45.5956 43.4704 44.5131C44.546 43.4307 46.0061 42.8177 47.532 42.8079H53.9352C55.4643 42.8128 56.9292 43.4237 58.0087 44.5067C59.0882 45.5896 59.6944 47.0564 59.6944 48.5855L59.7312 51.5295Z" fill="url(#paint3_linear_6_474)"/>
<path d="M33.4192 15.7231C33.2257 15.7458 33.0473 15.8391 32.9183 15.985C32.7893 16.131 32.7187 16.3195 32.72 16.5143V20.7831C32.72 20.993 32.8034 21.1942 32.9517 21.3426C33.1001 21.491 33.3014 21.5743 33.5112 21.5743C33.721 21.5743 33.9223 21.491 34.0707 21.3426C34.219 21.1942 34.3024 20.993 34.3024 20.7831V16.5143C34.3032 16.4022 34.2801 16.2912 34.2347 16.1887C34.1893 16.0862 34.1227 15.9945 34.0391 15.9197C33.9556 15.8448 33.8572 15.7886 33.7503 15.7548C33.6434 15.7209 33.5306 15.7101 33.4192 15.7231Z" fill="url(#paint4_linear_6_474)"/>
<path d="M40.08 18.8328C40.0065 18.7589 39.919 18.7001 39.8227 18.6601C39.7264 18.62 39.6231 18.5994 39.5188 18.5994C39.4145 18.5994 39.3112 18.62 39.2149 18.6601C39.1186 18.7001 39.0311 18.7589 38.9576 18.8328L37.5592 20.2128C37.4852 20.2864 37.4265 20.3738 37.3864 20.4701C37.3463 20.5664 37.3257 20.6697 37.3257 20.774C37.3257 20.8784 37.3463 20.9816 37.3864 21.078C37.4265 21.1743 37.4852 21.2617 37.5592 21.3352C37.6284 21.4127 37.7136 21.4742 37.8089 21.5155C37.9042 21.5568 38.0074 21.5769 38.1112 21.5744C38.2175 21.5749 38.3227 21.554 38.4207 21.5129C38.5187 21.4718 38.6075 21.4114 38.6816 21.3352L40.08 19.9552C40.2209 19.8023 40.2992 19.602 40.2992 19.394C40.2992 19.1861 40.2209 18.9857 40.08 18.8328Z" fill="url(#paint5_linear_6_474)"/>
<path d="M29.1872 20.2312L27.7888 18.8328C27.7153 18.7589 27.6278 18.7001 27.5315 18.6601C27.4352 18.62 27.3319 18.5994 27.2276 18.5994C27.1233 18.5994 27.02 18.62 26.9237 18.6601C26.8274 18.7001 26.7399 18.7589 26.6664 18.8328C26.593 18.9048 26.5346 18.9907 26.4948 19.0855C26.455 19.1803 26.4344 19.282 26.4344 19.3848C26.4344 19.4877 26.455 19.5894 26.4948 19.6842C26.5346 19.779 26.593 19.8649 26.6664 19.9368L28.0648 21.3536C28.2217 21.4943 28.4245 21.5728 28.6352 21.5744C28.7372 21.5759 28.8385 21.5571 28.9333 21.5193C29.028 21.4814 29.1143 21.4251 29.1872 21.3536C29.2612 21.2801 29.3199 21.1927 29.36 21.0964C29.4001 21 29.4207 20.8968 29.4207 20.7924C29.4207 20.6881 29.4001 20.5848 29.36 20.4885C29.3199 20.3922 29.2612 20.3048 29.1872 20.2312Z" fill="url(#paint6_linear_6_474)"/>
<path d="M51.304 51.7504C51.2311 51.679 51.1448 51.6227 51.0501 51.5848C50.9553 51.5469 50.854 51.5281 50.752 51.5296C50.647 51.5267 50.5425 51.5447 50.4446 51.5826C50.3467 51.6206 50.2573 51.6776 50.1816 51.7504C50.0295 51.9014 49.9435 52.1065 49.9424 52.3208C49.9463 52.5291 50.0323 52.7275 50.1816 52.8728C50.3326 53.0249 50.5377 53.1109 50.752 53.112C50.9604 53.1073 51.1589 53.0224 51.3063 52.8751C51.4537 52.7277 51.5385 52.5292 51.5432 52.3208C51.5421 52.1065 51.4561 51.9014 51.304 51.7504Z" fill="url(#paint7_linear_6_474)"/>
<defs>
<linearGradient id="paint0_linear_6_474" x1="38.0734" y1="45.3473" x2="39.6568" y2="43.7639" gradientUnits="userSpaceOnUse">
<stop stop-color="#344054"/>
<stop offset="1" stop-color="#475467"/>
</linearGradient>
<linearGradient id="paint1_linear_6_474" x1="45.9494" y1="28.9527" x2="54.7156" y2="18.1344" gradientUnits="userSpaceOnUse">
<stop stop-color="#344054"/>
<stop offset="1" stop-color="#475467"/>
</linearGradient>
<linearGradient id="paint2_linear_6_474" x1="43.0608" y1="21.5779" x2="44.632" y2="19.9955" gradientUnits="userSpaceOnUse">
<stop stop-color="#344054"/>
<stop offset="1" stop-color="#475467"/>
</linearGradient>
<linearGradient id="paint3_linear_6_474" x1="20.7213" y1="56.3685" x2="56.8843" y2="16.052" gradientUnits="userSpaceOnUse">
<stop stop-color="#344054"/>
<stop offset="1" stop-color="#475467"/>
</linearGradient>
<linearGradient id="paint4_linear_6_474" x1="32.72" y1="21.5743" x2="35.6695" y2="20.7773" gradientUnits="userSpaceOnUse">
<stop stop-color="#344054"/>
<stop offset="1" stop-color="#475467"/>
</linearGradient>
<linearGradient id="paint5_linear_6_474" x1="37.3257" y1="21.5746" x2="40.301" y2="18.6011" gradientUnits="userSpaceOnUse">
<stop stop-color="#344054"/>
<stop offset="1" stop-color="#475467"/>
</linearGradient>
<linearGradient id="paint6_linear_6_474" x1="26.4344" y1="21.5745" x2="29.4095" y2="18.5883" gradientUnits="userSpaceOnUse">
<stop stop-color="#344054"/>
<stop offset="1" stop-color="#475467"/>
</linearGradient>
<linearGradient id="paint7_linear_6_474" x1="49.9424" y1="53.112" x2="51.525" y2="51.5113" gradientUnits="userSpaceOnUse">
<stop stop-color="#344054"/>
<stop offset="1" stop-color="#475467"/>
</linearGradient>
</defs>
</svg>
