<svg width="82" height="71" viewBox="0 0 82 71" fill="none" xmlns="http://www.w3.org/2000/svg">
<path fill-rule="evenodd" clip-rule="evenodd" d="M44.2411 1.93627C53.008 0.363815 62.9593 -2.20134 69.8602 3.64817C77.0664 9.75651 76.4643 20.7576 77.7542 30.3435C79.389 42.4933 86.1577 56.6881 78.2157 65.7453C70.2493 74.8303 56.0093 69.599 44.2411 68.5622C33.9609 67.6566 23.475 67.1256 15.5634 60.2258C6.94539 52.7099 -2.06221 41.765 0.417941 30.3435C2.82337 19.266 16.8916 17.488 26.1465 11.4888C32.1149 7.61995 37.314 3.17873 44.2411 1.93627Z" fill="#F9FAFB"/>
<path d="M50.1151 30.363L50.2495 30.1372L50.66 29.4681C52.0329 27.2768 54.9062 22.7103 53.8729 19.1976C53.7053 18.4821 53.3721 17.8361 52.9107 17.3323C52.4494 16.8285 51.8782 16.4867 51.2615 16.3456C50.7335 16.2466 50.1927 16.3161 49.695 16.5469C49.1973 16.7778 48.7608 17.1616 48.4308 17.6587C48.4308 17.6587 48.3954 17.7339 48.3742 17.7758C48.3589 17.7098 48.3471 17.6427 48.3388 17.575C48.285 17.2718 48.1445 16.9998 47.9408 16.8047C47.7371 16.6097 47.4828 16.5037 47.2206 16.5045H47.0154C42.0892 17.2915 37.2786 18.8788 32.72 21.2216C32.4594 21.3598 32.2514 21.6073 32.1363 21.9164C32.0213 22.2254 32.0074 22.5738 32.0972 22.8943C32.1192 22.9571 32.1382 23.0213 32.1538 23.0867L32.0477 23.0365C31.543 22.8091 30.9956 22.7474 30.4636 22.8578C29.9316 22.9682 29.4348 23.2467 29.0258 23.6638C28.5537 24.1608 28.2092 24.8046 28.0315 25.5217C27.8538 26.2389 27.8502 27.0006 28.0209 27.7201C28.7286 31.3499 33.1375 33.5078 35.2748 34.5448L35.9117 34.8627L36.1382 34.9798C38.3815 36.0921 39.1246 36.7528 39.3511 37.1125C39.5775 37.4721 39.6412 37.8568 39.4572 38.0492C39.2732 38.2416 38.8415 38.2667 38.4523 37.8401C38.3385 37.7371 38.1962 37.6882 38.0535 37.7031C37.9107 37.7179 37.7778 37.7954 37.681 37.9203C37.5842 38.0452 37.5305 38.2085 37.5305 38.3778C37.5305 38.5472 37.5841 38.7105 37.6809 38.8354C38.061 39.2731 38.5659 39.5267 39.0963 39.5463C39.5078 39.551 39.9062 39.3752 40.2145 39.0528C40.3738 38.8803 40.4999 38.6692 40.5841 38.434C40.6684 38.1988 40.7088 37.9449 40.7028 37.6896L42.0828 38.8187L42.2455 39.4376L42.104 39.4961C39.7757 40.5332 39.9243 42.8416 40.0163 44.163C40.0936 44.6494 40.0936 45.1486 40.0163 45.635C39.8245 46.2781 39.4983 46.8535 39.068 47.3078L39.0185 47.3579L33.5197 53.3965C33.3528 53.582 33.2367 53.8224 33.1866 54.0866C33.1364 54.3509 33.1543 54.6268 33.2381 54.8788C33.3219 55.1309 33.4677 55.3475 33.6566 55.5007C33.8456 55.6539 34.069 55.7366 34.2982 55.7383H41.4883C41.7874 55.7399 42.0749 55.6016 42.288 55.3536L43.7034 53.6808L43.9015 54.1492C43.9936 54.3689 44.1344 54.5549 44.3089 54.6874C44.4834 54.82 44.685 54.8941 44.8923 54.9019C44.9952 54.9017 45.0976 54.8848 45.1966 54.8518L51.1483 52.8947C51.4026 52.8054 51.6231 52.6152 51.7727 52.3562C51.9222 52.0972 51.9916 51.7853 51.9692 51.4728L51.8772 50.1263C51.8575 49.8035 51.7401 49.4999 51.5465 49.271C51.3528 49.0422 51.0959 48.9034 50.8228 48.8801L50.1575 48.8216C50.501 48.5006 50.7594 48.0701 50.9024 47.581C51.0454 47.0919 51.0668 46.5646 50.9643 46.0616C50.8996 45.7587 50.7841 45.4743 50.6246 45.2252C50.682 44.8159 50.6651 44.3968 50.5751 43.9958C50.4775 43.5843 50.2952 43.2079 50.0443 42.9001C50.0677 42.5683 50.0414 42.2342 49.9665 41.9132C49.867 41.4811 49.6715 41.0884 49.4003 40.7758C49.4292 40.4493 49.3981 40.1193 49.3089 39.8084C49.2197 39.4976 49.0747 39.2132 48.8837 38.9748C48.6928 38.7365 48.4605 38.5497 48.2027 38.4275C47.945 38.3053 47.6679 38.2504 47.3905 38.2667C47.2215 38.2687 47.0531 38.2911 46.888 38.3336L46.6686 37.2714C46.9163 36.6274 47.1428 36.0252 47.3763 35.4565C47.484 35.6738 47.6302 35.8611 47.8049 36.0055C47.9796 36.1498 48.1786 36.2478 48.3883 36.2928C48.4848 36.3046 48.582 36.3046 48.6785 36.2928C49.1023 36.2715 49.5083 36.0853 49.8334 35.7631C50.1585 35.441 50.3844 35.0009 50.476 34.5114C50.5046 34.4238 50.5175 34.3302 50.5139 34.2364C50.5103 34.1426 50.4902 34.0508 50.455 33.9666C50.4197 33.8825 50.3701 33.808 50.3091 33.7477C50.2482 33.6875 50.1774 33.6429 50.1011 33.6167C50.0248 33.5905 49.9448 33.5834 49.866 33.5957C49.7873 33.608 49.7116 33.6395 49.6437 33.6883C49.5758 33.737 49.5172 33.8019 49.4717 33.8788C49.4261 33.9557 49.3946 34.043 49.3791 34.135C49.2234 34.7372 48.8766 34.9714 48.6077 34.9296C48.3388 34.8878 48.2468 34.5532 48.2892 34.0932C48.3317 33.6332 48.6785 32.6881 50.1151 30.363ZM50.3203 20.9707C49.9169 20.8928 49.5423 20.6744 49.2446 20.3434C49.0994 20.0556 49.027 19.7247 49.0358 19.3898C49.0445 19.0548 49.1342 18.7299 49.2942 18.4532C49.5034 18.151 49.7768 17.9197 50.0864 17.7831C50.3959 17.6465 50.7306 17.6093 51.0563 17.6754C51.4724 17.7744 51.8561 18.0108 52.163 18.3572C52.4699 18.7037 52.6874 19.1459 52.7902 19.6325C53.604 22.4761 50.8935 26.8168 49.74 28.6652C49.5631 28.9496 49.4145 29.1838 49.3083 29.3678L49.188 29.5685L49.0818 29.7358C49.4457 27.0999 49.4026 24.408 48.9545 21.7903C49.3041 22.0222 49.6809 22.1913 50.0726 22.2921C50.1475 22.317 50.2259 22.3233 50.303 22.3107C50.38 22.2982 50.4541 22.267 50.5205 22.2191C50.5869 22.1713 50.6442 22.1077 50.6889 22.0325C50.7336 21.9573 50.7647 21.872 50.7803 21.7819C50.7967 21.6928 50.7978 21.6007 50.7834 21.5112C50.7689 21.4216 50.7394 21.3363 50.6964 21.2606C50.6535 21.1848 50.598 21.1201 50.5334 21.0703C50.4688 21.0205 50.3963 20.9866 50.3203 20.9707ZM36.5769 33.7336L36.4 33.6332L35.7277 33.2987C33.9302 32.4205 29.7123 30.363 29.1603 27.4441C29.0339 26.9674 29.0232 26.4583 29.1295 25.9748C29.2359 25.4913 29.455 25.0528 29.7618 24.7092C30.0124 24.4557 30.3148 24.2843 30.639 24.2124C30.9632 24.1405 31.2977 24.1705 31.6089 24.2994C31.8683 24.4367 32.0886 24.6598 32.2431 24.9418C32.3975 25.2238 32.4796 25.5526 32.4794 25.8885C32.3755 26.3547 32.1532 26.7721 31.8425 27.0845C31.7559 27.2127 31.7116 27.3736 31.7178 27.5375C31.7241 27.7013 31.7804 27.857 31.8763 27.9755C31.9723 28.094 32.1013 28.1673 32.2396 28.1819C32.3778 28.1964 32.5158 28.1512 32.628 28.0547C32.9081 27.7262 33.1465 27.3516 33.3357 26.9423C34.1013 29.4555 35.2449 31.7846 36.7114 33.8172L36.5769 33.7336ZM50.7308 50.235L50.8157 51.5899L44.8923 53.5554L44.5243 52.719L45.3028 51.8074C46.4479 51.3993 47.5425 50.8144 48.5582 50.0678L50.7308 50.235ZM46.8031 39.8056C46.9991 39.7124 47.2076 39.6614 47.4188 39.655C48.3458 39.655 48.6714 40.851 47.7231 41.7208C47.8548 41.6152 48.0097 41.5571 48.1689 41.5536C48.9403 41.5536 49.3012 43.151 48.4025 43.795C48.5207 43.7046 48.658 43.6554 48.7988 43.6528C49.5065 43.6528 49.9382 45.267 48.9545 45.9696H48.9969C49.0895 45.8982 49.1978 45.8604 49.3083 45.8608C49.9382 45.8608 50.3628 47.2158 49.1455 48.0856C47.7804 49.1835 46.2818 50.0296 44.7012 50.5947L41.4883 54.3499H34.2769L39.7828 48.303C40.3645 47.6989 40.8076 46.9307 41.0708 46.0699C41.6157 44.2634 40.1862 41.7878 42.4862 40.7507C43.0594 40.5248 45.6 40.3827 46.8031 39.8056ZM45.4938 37.1627L45.8123 38.7518C45.1825 38.9274 44.3545 39.0528 43.6892 39.1532L43.3778 39.2034L43.0452 37.9656C37.3837 33.3907 36.0745 32.3703 33.1375 22.4594C37.6072 20.1607 42.3254 18.6069 47.1569 17.8427C49.004 28.1299 48.3175 29.811 45.4938 37.1627Z" fill="url(#paint0_linear_6_490)"/>
<defs>
<linearGradient id="paint0_linear_6_490" x1="27.8951" y1="55.7381" x2="64.2479" y2="31.5895" gradientUnits="userSpaceOnUse">
<stop stop-color="#344054"/>
<stop offset="1" stop-color="#475467"/>
</linearGradient>
</defs>
</svg>
