<svg width="83" height="71" viewBox="0 0 83 71" fill="none" xmlns="http://www.w3.org/2000/svg">
<path fill-rule="evenodd" clip-rule="evenodd" d="M38.735 0.0563022C50.2594 0.286096 61.9994 2.04335 70.2935 8.35567C78.7145 14.7646 82.2635 24.0089 82.3324 33.2365C82.4018 42.5241 78.6023 51.5472 70.6674 58.4121C62.3405 65.6161 51.0718 71.5825 38.735 70.9546C26.8632 70.3503 17.9672 62.7696 10.676 55.3584C4.41463 48.994 2.48153 41.2627 1.62776 33.2365C0.659775 24.1365 -2.1215 13.9141 5.53881 7.06448C13.4145 0.022252 26.8303 -0.181075 38.735 0.0563022Z" fill="#F2F4F7"/>
<path d="M45.7706 48.9636H45.7139C45.6388 48.9563 45.5657 48.9313 45.4989 48.8902C45.432 48.849 45.3728 48.7925 45.3247 48.724C45.2766 48.6554 45.2405 48.5762 45.2187 48.491C45.1968 48.4058 45.1895 48.3162 45.1973 48.2276L45.254 47.5334C45.4689 45.533 46.2524 43.6781 47.4761 42.2727C48.2705 41.3299 48.8942 40.206 49.3095 38.9694C49.7248 37.7328 49.9229 36.4092 49.8918 35.0793C49.8607 33.7493 49.601 32.4407 49.1286 31.2331C48.6561 30.0254 47.9807 28.944 47.1435 28.0545C46.0054 26.8539 44.6126 26.0411 43.1141 25.7031C41.6155 25.3651 40.0674 25.5145 38.6351 26.1355C37.2028 26.7564 35.9401 27.8255 34.982 29.2285C34.0238 30.6315 33.4061 32.3158 33.1949 34.1014C33.0242 35.6303 33.1623 37.1851 33.5977 38.6388C34.0331 40.0924 34.7536 41.4036 35.7001 42.4651C36.9719 43.9327 37.7299 45.9123 37.8232 48.0102V48.2109C37.8344 48.3906 37.7848 48.5682 37.6853 48.7046C37.5858 48.8411 37.4444 48.9252 37.2924 48.9385C37.2171 48.9451 37.1415 48.9341 37.0698 48.9062C36.9981 48.8782 36.9318 48.8338 36.8746 48.7756C36.7592 48.658 36.688 48.4909 36.6767 48.3113V48.1105C36.6016 46.3447 35.9646 44.6777 34.8933 43.4436C33.8217 42.2335 33.0068 40.7417 32.5149 39.0893C32.0231 37.4369 31.8681 35.6707 32.0626 33.9342C32.3839 31.0997 33.6028 28.5147 35.4733 26.7005C37.3438 24.8862 39.7268 23.9776 42.1418 24.158C44.5568 24.3384 46.8241 25.5943 48.4865 27.6724C50.1488 29.7505 51.0826 32.4963 51.0995 35.356C51.103 36.8269 50.859 38.2839 50.3815 39.6422C49.904 41.0005 49.2026 42.2331 48.3183 43.268C47.2935 44.4443 46.6267 45.9881 46.4216 47.6589L46.3721 48.3196C46.363 48.4986 46.2949 48.6662 46.1825 48.7866C46.07 48.907 45.9222 48.9705 45.7706 48.9636Z" fill="url(#paint0_linear_6_499)"/>
<path d="M41.3333 21.9743C41.1813 21.9743 41.0355 21.9029 40.928 21.7759C40.8205 21.6488 40.7601 21.4765 40.7601 21.2968V17.1819C40.7601 17.0015 40.8203 16.8283 40.9276 16.6999C41.0349 16.5715 41.1807 16.4983 41.3333 16.4961C41.4872 16.4961 41.6348 16.5683 41.7437 16.697C41.8525 16.8256 41.9136 17 41.9136 17.1819V21.2968C41.9118 21.4773 41.8498 21.6496 41.7412 21.7764C41.6326 21.9032 41.486 21.9743 41.3333 21.9743Z" fill="url(#paint1_linear_6_499)"/>
<path d="M57.4758 38.3252H53.9373C53.7853 38.3252 53.6395 38.2538 53.532 38.1268C53.4245 37.9997 53.3641 37.8274 53.3641 37.6477C53.3641 37.4673 53.4243 37.2941 53.5316 37.1657C53.6389 37.0373 53.7847 36.9641 53.9373 36.9619H57.4758C57.6297 36.9619 57.7773 37.0342 57.8861 37.1628C57.995 37.2914 58.0561 37.4658 58.0561 37.6477C58.0542 37.8282 57.9923 38.0005 57.8837 38.1273C57.775 38.2541 57.6285 38.3252 57.4758 38.3252Z" fill="url(#paint2_linear_6_499)"/>
<path d="M52.3026 26.0639C52.2264 26.064 52.1509 26.0463 52.0805 26.0118C52.01 25.9774 51.946 25.9269 51.8921 25.8632C51.787 25.7339 51.7283 25.5616 51.7283 25.3823C51.7283 25.203 51.787 25.0307 51.8921 24.9014L54.185 22.1999C54.2959 22.0896 54.4376 22.0322 54.5824 22.0391C54.7272 22.0461 54.8646 22.1168 54.9675 22.2374C55.0705 22.3579 55.1315 22.5197 55.1386 22.6907C55.1457 22.8618 55.0984 23.0298 55.006 23.1618L52.6989 25.8883C52.5902 26.0037 52.4487 26.0664 52.3026 26.0639Z" fill="url(#paint3_linear_6_499)"/>
<path d="M30.3641 26.064C30.2888 26.0649 30.2142 26.0475 30.1449 26.013C30.0755 25.9784 30.0128 25.9275 29.9607 25.8633L27.6536 23.1368C27.5522 23.0062 27.498 22.8339 27.5028 22.6567C27.5076 22.4795 27.571 22.3116 27.6794 22.1891C27.7877 22.0665 27.9324 21.999 28.0824 22.001C28.2324 22.0031 28.3757 22.0745 28.4816 22.2L30.7887 24.9266C30.8424 24.9896 30.8851 25.0645 30.9141 25.147C30.9432 25.2296 30.9582 25.3181 30.9582 25.4075C30.9582 25.4969 30.9432 25.5854 30.9141 25.668C30.8851 25.7505 30.8424 25.8254 30.7887 25.8884C30.7314 25.9496 30.6643 25.9967 30.5914 26.0268C30.5185 26.057 30.4412 26.0696 30.3641 26.064Z" fill="url(#paint4_linear_6_499)"/>
<path d="M28.7223 38.3252H25.1838C25.0311 38.3252 24.8846 38.2541 24.7759 38.1273C24.6673 38.0005 24.6053 37.8282 24.6035 37.6477C24.6035 37.4658 24.6646 37.2914 24.7735 37.1628C24.8823 37.0342 25.0299 36.9619 25.1838 36.9619H28.7223C28.8749 36.9641 29.0207 37.0373 29.128 37.1657C29.2353 37.2941 29.2955 37.4673 29.2955 37.6477C29.2955 37.8274 29.2351 37.9997 29.1276 38.1268C29.0201 38.2538 28.8743 38.3252 28.7223 38.3252Z" fill="url(#paint5_linear_6_499)"/>
<path d="M45.9334 52.2087H36.9952C36.8425 52.2065 36.6967 52.1333 36.5894 52.0049C36.4821 51.8766 36.422 51.7034 36.422 51.5229C36.422 51.3432 36.4824 51.1709 36.5899 51.0439C36.6974 50.9168 36.8432 50.8455 36.9952 50.8455H45.9334C46.0854 50.8455 46.2312 50.9168 46.3387 51.0439C46.4462 51.1709 46.5066 51.3432 46.5066 51.5229C46.5066 51.7034 46.4464 51.8766 46.3391 52.0049C46.2318 52.1333 46.086 52.2065 45.9334 52.2087Z" fill="url(#paint6_linear_6_499)"/>
<path d="M44.2419 55.479H38.6653C38.5127 55.4768 38.3669 55.4036 38.2596 55.2752C38.1523 55.1468 38.0921 54.9736 38.0921 54.7932C38.0921 54.6135 38.1525 54.4412 38.26 54.3141C38.3675 54.1871 38.5133 54.1157 38.6653 54.1157H44.2419C44.3172 54.1157 44.3918 54.1332 44.4613 54.1673C44.5309 54.2013 44.5941 54.2512 44.6473 54.3141C44.7005 54.3771 44.7427 54.4517 44.7715 54.5339C44.8004 54.6161 44.8152 54.7042 44.8152 54.7932C44.8152 54.9736 44.755 55.1468 44.6477 55.2752C44.5404 55.4036 44.3946 55.4768 44.2419 55.479Z" fill="url(#paint7_linear_6_499)"/>
<path d="M42.4657 49.1141C42.3117 49.1141 42.1641 49.0419 42.0553 48.9133C41.9465 48.7846 41.8853 48.6102 41.8853 48.4283V35.5149C41.8872 35.3344 41.9492 35.1621 42.0578 35.0353C42.1664 34.9085 42.313 34.8374 42.4657 34.8374C42.6177 34.8374 42.7635 34.9088 42.871 35.0358C42.9785 35.1629 43.0389 35.3352 43.0389 35.5149V48.4283C43.0389 48.6088 42.9787 48.7819 42.8714 48.9103C42.7641 49.0387 42.6183 49.1119 42.4657 49.1141Z" fill="url(#paint8_linear_6_499)"/>
<path d="M40.1586 47.0986C40.0082 47.1032 39.8621 47.0387 39.7512 46.9186C39.6403 46.7984 39.5732 46.6321 39.5641 46.4546V45.7688C39.566 45.5883 39.6279 45.416 39.7366 45.2892C39.8452 45.1624 39.9917 45.0913 40.1444 45.0913C40.2965 45.0913 40.4423 45.1627 40.5498 45.2897C40.6573 45.4168 40.7177 45.5891 40.7177 45.7688V46.4546C40.7105 46.6255 40.6489 46.787 40.5452 46.9064C40.4415 47.0259 40.3034 47.0946 40.1586 47.0986Z" fill="url(#paint9_linear_6_499)"/>
<path d="M40.1586 43.6946C40.0059 43.6946 39.8594 43.6235 39.7507 43.4967C39.6421 43.3699 39.5801 43.1976 39.5783 43.0171V42.3313C39.5783 42.1494 39.6394 41.975 39.7482 41.8464C39.8571 41.7178 40.0047 41.6455 40.1586 41.6455C40.3113 41.6477 40.4571 41.7209 40.5644 41.8493C40.6717 41.9777 40.7318 42.1509 40.7318 42.3313V43.0171C40.7318 43.1061 40.717 43.1942 40.6882 43.2764C40.6594 43.3586 40.6171 43.4333 40.5639 43.4962C40.5107 43.5591 40.4475 43.609 40.378 43.643C40.3084 43.6771 40.2339 43.6946 40.1586 43.6946Z" fill="url(#paint10_linear_6_499)"/>
<path d="M40.1586 40.2906C40.0047 40.2906 39.8571 40.2183 39.7482 40.0897C39.6394 39.9611 39.5783 39.7866 39.5783 39.6047V36.2007H37.8515C37.7445 36.1995 37.6399 36.1638 37.5489 36.0975C37.4578 36.0312 37.3838 35.9367 37.3349 35.8244C37.2859 35.7104 37.2653 35.5824 37.2753 35.4551C37.2853 35.3278 37.3256 35.2065 37.3915 35.1051L40.8521 29.6604C40.9079 29.5799 40.978 29.515 41.0576 29.4705C41.1371 29.4259 41.2241 29.4028 41.3121 29.4028C41.4001 29.4028 41.4871 29.4259 41.5666 29.4705C41.6462 29.515 41.7163 29.5799 41.7721 29.6604L45.2256 35.1051C45.2889 35.2081 45.327 35.3297 45.3357 35.4565C45.3445 35.5834 45.3235 35.7106 45.2752 35.8244C45.228 35.9367 45.1554 36.0313 45.0655 36.0978C44.9755 36.1642 44.8717 36.1999 44.7656 36.2007H42.4656C42.3117 36.2007 42.1641 36.1285 42.0553 35.9999C41.9465 35.8712 41.8853 35.6968 41.8853 35.5149C41.8872 35.3345 41.9492 35.1622 42.0578 35.0354C42.1664 34.9086 42.313 34.8374 42.4656 34.8375H43.6192L41.3121 31.1993L39.005 34.8375H40.1586C40.3106 34.8375 40.4564 34.9088 40.5639 35.0359C40.6714 35.1629 40.7318 35.3352 40.7318 35.5149V39.6047C40.7318 39.7852 40.6716 39.9584 40.5643 40.0868C40.457 40.2151 40.3112 40.2884 40.1586 40.2906Z" fill="url(#paint11_linear_6_499)"/>
<defs>
<linearGradient id="paint0_linear_6_499" x1="31.9808" y1="48.964" x2="55.9851" y2="30.4803" gradientUnits="userSpaceOnUse">
<stop stop-color="#344054"/>
<stop offset="1" stop-color="#475467"/>
</linearGradient>
<linearGradient id="paint1_linear_6_499" x1="40.7601" y1="21.9742" x2="42.9692" y2="21.5091" gradientUnits="userSpaceOnUse">
<stop stop-color="#344054"/>
<stop offset="1" stop-color="#475467"/>
</linearGradient>
<linearGradient id="paint2_linear_6_499" x1="53.364" y1="38.3252" x2="54.0946" y2="35.8109" gradientUnits="userSpaceOnUse">
<stop stop-color="#344054"/>
<stop offset="1" stop-color="#475467"/>
</linearGradient>
<linearGradient id="paint3_linear_6_499" x1="51.7283" y1="26.064" x2="55.6991" y2="22.6993" gradientUnits="userSpaceOnUse">
<stop stop-color="#344054"/>
<stop offset="1" stop-color="#475467"/>
</linearGradient>
<linearGradient id="paint4_linear_6_499" x1="27.5025" y1="26.0653" x2="31.5139" y2="22.6546" gradientUnits="userSpaceOnUse">
<stop stop-color="#344054"/>
<stop offset="1" stop-color="#475467"/>
</linearGradient>
<linearGradient id="paint5_linear_6_499" x1="24.6034" y1="38.3252" x2="25.3339" y2="35.8109" gradientUnits="userSpaceOnUse">
<stop stop-color="#344054"/>
<stop offset="1" stop-color="#475467"/>
</linearGradient>
<linearGradient id="paint6_linear_6_499" x1="36.4218" y1="52.2087" x2="36.7838" y2="49.5311" gradientUnits="userSpaceOnUse">
<stop stop-color="#344054"/>
<stop offset="1" stop-color="#475467"/>
</linearGradient>
<linearGradient id="paint7_linear_6_499" x1="38.092" y1="55.479" x2="38.623" y2="52.8601" gradientUnits="userSpaceOnUse">
<stop stop-color="#344054"/>
<stop offset="1" stop-color="#475467"/>
</linearGradient>
<linearGradient id="paint8_linear_6_499" x1="41.8853" y1="49.114" x2="44.1775" y2="48.9288" gradientUnits="userSpaceOnUse">
<stop stop-color="#344054"/>
<stop offset="1" stop-color="#475467"/>
</linearGradient>
<linearGradient id="paint9_linear_6_499" x1="39.5641" y1="47.0988" x2="41.2985" y2="46.1022" gradientUnits="userSpaceOnUse">
<stop stop-color="#344054"/>
<stop offset="1" stop-color="#475467"/>
</linearGradient>
<linearGradient id="paint10_linear_6_499" x1="39.5783" y1="43.6946" x2="41.3301" y2="42.7084" gradientUnits="userSpaceOnUse">
<stop stop-color="#344054"/>
<stop offset="1" stop-color="#475467"/>
</linearGradient>
<linearGradient id="paint11_linear_6_499" x1="37.2727" y1="40.2905" x2="47.6879" y2="32.5757" gradientUnits="userSpaceOnUse">
<stop stop-color="#344054"/>
<stop offset="1" stop-color="#475467"/>
</linearGradient>
</defs>
</svg>
