<svg width="83" height="71" viewBox="0 0 83 71" fill="none" xmlns="http://www.w3.org/2000/svg">
<path fill-rule="evenodd" clip-rule="evenodd" d="M41.035 2.9346C50.5245 3.57858 61.5247 0.883252 68.1574 6.61271C74.7586 12.315 69.9433 21.5436 71.6319 29.365C74.1045 40.8171 87.5012 52.3087 80.1548 62.1815C72.7506 72.1321 54.971 71.4461 41.035 70.4846C28.3386 69.6086 15.9929 65.4199 7.86094 57.1938C0.338929 49.5847 0.154733 39.2481 0.385962 29.365C0.610869 19.7521 0.0791378 8.4977 9.13806 2.6075C17.8747 -3.07317 30.0172 2.1869 41.035 2.9346Z" fill="#F2F4F7"/>
<path d="M48.9987 34.082V26.4154M58.582 16.832H24.082V47.4987H33.6654V55.1654L41.332 47.4987H50.9154L58.582 39.832V16.832ZM39.4154 34.082V26.4154V34.082Z" stroke="#101828" stroke-width="2" stroke-linecap="round" stroke-linejoin="round"/>
</svg>
