<svg width="1185" height="151" viewBox="0 0 1185 151" fill="none" xmlns="http://www.w3.org/2000/svg">
<line x1="68.9961" y1="52.9844" x2="1110" y2="52.9844" stroke="#B7C9CC"/>
<g clip-path="url(#clip0_457_658)">
<path d="M238.288 60.3319C238.135 60.3319 237.975 60.2986 237.835 60.2253C237.521 60.0653 237.328 59.7519 237.328 59.4119V46.5853C237.328 46.2453 237.521 45.9319 237.835 45.7719C238.148 45.6119 238.528 45.6319 238.828 45.8186L248.901 52.2319C249.168 52.4053 249.328 52.6919 249.328 52.9986C249.328 53.3053 249.168 53.5919 248.901 53.7653L238.828 60.1786C238.661 60.2786 238.475 60.3319 238.288 60.3319Z" fill="#B7C9CC"/>
</g>
<g clip-path="url(#clip1_457_658)">
<path d="M584.944 60.3319C584.791 60.3319 584.631 60.2986 584.491 60.2253C584.178 60.0653 583.984 59.7519 583.984 59.4119V46.5853C583.984 46.2453 584.178 45.9319 584.491 45.7719C584.804 45.6119 585.184 45.6319 585.484 45.8186L595.558 52.2319C595.824 52.4053 595.984 52.6919 595.984 52.9986C595.984 53.3053 595.824 53.5919 595.558 53.7653L585.484 60.1786C585.318 60.2786 585.131 60.3319 584.944 60.3319Z" fill="#B7C9CC"/>
</g>
<g clip-path="url(#clip2_457_658)">
<path d="M931.601 60.3319C931.447 60.3319 931.287 60.2986 931.147 60.2253C930.834 60.0653 930.641 59.7519 930.641 59.4119V46.5853C930.641 46.2453 930.834 45.9319 931.147 45.7719C931.461 45.6119 931.841 45.6319 932.141 45.8186L942.214 52.2319C942.481 52.4053 942.641 52.6919 942.641 52.9986C942.641 53.3053 942.481 53.5919 942.214 53.7653L932.141 60.1786C931.974 60.2786 931.787 60.3319 931.601 60.3319Z" fill="#B7C9CC"/>
</g>
<path d="M1.71875 119.779C1.36719 119.779 1.05957 119.759 0.795898 119.718C0.526367 119.683 0.297852 119.639 0.110352 119.586V117.318C0.297852 117.359 0.5 117.397 0.716797 117.433C0.927734 117.474 1.15332 117.494 1.39355 117.494C1.70996 117.494 1.99414 117.433 2.24609 117.31C2.49805 117.192 2.69727 116.967 2.84375 116.633C2.99023 116.299 3.06348 115.818 3.06348 115.191V103.15H5.78809V115.174C5.78809 116.275 5.61523 117.163 5.26953 117.837C4.92969 118.517 4.45215 119.009 3.83691 119.313C3.22754 119.624 2.52148 119.779 1.71875 119.779ZM17.7412 111.069C17.7412 111.89 17.6299 112.616 17.4072 113.249C17.1904 113.882 16.8711 114.418 16.4492 114.857C16.0332 115.291 15.5293 115.619 14.9375 115.842C14.3516 116.064 13.6895 116.176 12.9512 116.176C12.2598 116.176 11.624 116.064 11.0439 115.842C10.4697 115.619 9.96875 115.291 9.54102 114.857C9.11914 114.418 8.79102 113.882 8.55664 113.249C8.32812 112.616 8.21387 111.89 8.21387 111.069C8.21387 109.979 8.40723 109.057 8.79395 108.301C9.18066 107.545 9.73145 106.971 10.4463 106.578C11.1611 106.186 12.0137 105.989 13.0039 105.989C13.9238 105.989 14.7383 106.186 15.4473 106.578C16.1621 106.971 16.7217 107.545 17.126 108.301C17.5361 109.057 17.7412 109.979 17.7412 111.069ZM10.9473 111.069C10.9473 111.714 11.0176 112.256 11.1582 112.695C11.2988 113.135 11.5186 113.466 11.8174 113.688C12.1162 113.911 12.5059 114.022 12.9863 114.022C13.4609 114.022 13.8447 113.911 14.1377 113.688C14.4365 113.466 14.6533 113.135 14.7881 112.695C14.9287 112.256 14.999 111.714 14.999 111.069C14.999 110.419 14.9287 109.88 14.7881 109.452C14.6533 109.019 14.4365 108.693 14.1377 108.477C13.8389 108.26 13.4492 108.151 12.9688 108.151C12.2598 108.151 11.7441 108.395 11.4219 108.881C11.1055 109.367 10.9473 110.097 10.9473 111.069ZM22.6367 106.174V116H19.9561V106.174H22.6367ZM21.3008 102.324C21.6992 102.324 22.042 102.418 22.3291 102.605C22.6162 102.787 22.7598 103.13 22.7598 103.634C22.7598 104.132 22.6162 104.478 22.3291 104.671C22.042 104.858 21.6992 104.952 21.3008 104.952C20.8965 104.952 20.5508 104.858 20.2637 104.671C19.9824 104.478 19.8418 104.132 19.8418 103.634C19.8418 103.13 19.9824 102.787 20.2637 102.605C20.5508 102.418 20.8965 102.324 21.3008 102.324ZM31.0391 105.989C32.0879 105.989 32.9316 106.276 33.5703 106.851C34.209 107.419 34.5283 108.333 34.5283 109.593V116H31.8477V110.261C31.8477 109.558 31.7188 109.027 31.4609 108.67C31.209 108.312 30.8105 108.134 30.2656 108.134C29.4453 108.134 28.8857 108.412 28.5869 108.969C28.2881 109.525 28.1387 110.328 28.1387 111.377V116H25.458V106.174H27.5059L27.8662 107.431H28.0156C28.2266 107.091 28.4873 106.815 28.7979 106.604C29.1143 106.394 29.4629 106.238 29.8438 106.139C30.2305 106.039 30.6289 105.989 31.0391 105.989ZM49.7598 112.432C49.7598 113.193 49.5752 113.855 49.2061 114.418C48.8369 114.98 48.2979 115.414 47.5889 115.719C46.8857 116.023 46.0303 116.176 45.0225 116.176C44.5771 116.176 44.1406 116.146 43.7129 116.088C43.291 116.029 42.8838 115.944 42.4912 115.833C42.1045 115.716 41.7354 115.572 41.3838 115.402V112.871C41.9932 113.141 42.626 113.384 43.2822 113.601C43.9385 113.817 44.5889 113.926 45.2334 113.926C45.6787 113.926 46.0361 113.867 46.3057 113.75C46.5811 113.633 46.7803 113.472 46.9033 113.267C47.0264 113.062 47.0879 112.827 47.0879 112.563C47.0879 112.241 46.9795 111.966 46.7627 111.737C46.5459 111.509 46.2471 111.295 45.8662 111.096C45.4912 110.896 45.0664 110.683 44.5918 110.454C44.293 110.313 43.9678 110.144 43.6162 109.944C43.2646 109.739 42.9307 109.49 42.6143 109.197C42.2979 108.904 42.0371 108.55 41.832 108.134C41.6328 107.712 41.5332 107.208 41.5332 106.622C41.5332 105.854 41.709 105.198 42.0605 104.653C42.4121 104.108 42.9131 103.692 43.5635 103.405C44.2197 103.112 44.9932 102.966 45.8838 102.966C46.5518 102.966 47.1875 103.045 47.791 103.203C48.4004 103.355 49.0361 103.578 49.6982 103.871L48.8193 105.989C48.2275 105.749 47.6973 105.564 47.2285 105.436C46.7598 105.301 46.2822 105.233 45.7959 105.233C45.4561 105.233 45.166 105.289 44.9258 105.4C44.6855 105.506 44.5039 105.658 44.3809 105.857C44.2578 106.051 44.1963 106.276 44.1963 106.534C44.1963 106.839 44.2842 107.097 44.46 107.308C44.6416 107.513 44.9111 107.712 45.2686 107.905C45.6318 108.099 46.083 108.324 46.6221 108.582C47.2783 108.893 47.8379 109.218 48.3008 109.558C48.7695 109.892 49.1299 110.287 49.3818 110.744C49.6338 111.195 49.7598 111.758 49.7598 112.432ZM54.5586 102.324V108.441C54.5586 108.811 54.5439 109.18 54.5146 109.549C54.4854 109.918 54.4531 110.287 54.418 110.656H54.4531C54.6348 110.398 54.8193 110.144 55.0068 109.892C55.2002 109.64 55.4053 109.396 55.6221 109.162L58.373 106.174H61.3965L57.4941 110.437L61.6338 116H58.54L55.71 112.019L54.5586 112.941V116H51.8779V102.324H54.5586ZM65.7207 106.174V116H63.04V106.174H65.7207ZM64.3848 102.324C64.7832 102.324 65.126 102.418 65.4131 102.605C65.7002 102.787 65.8438 103.13 65.8438 103.634C65.8438 104.132 65.7002 104.478 65.4131 104.671C65.126 104.858 64.7832 104.952 64.3848 104.952C63.9805 104.952 63.6348 104.858 63.3477 104.671C63.0664 104.478 62.9258 104.132 62.9258 103.634C62.9258 103.13 63.0664 102.787 63.3477 102.605C63.6348 102.418 63.9805 102.324 64.3848 102.324ZM71.2227 116H68.542V102.324H71.2227V116ZM76.7246 116H74.0439V102.324H76.7246V116ZM83.5713 105.972C84.8896 105.972 85.9004 106.259 86.6035 106.833C87.3066 107.407 87.6582 108.28 87.6582 109.452V116H85.7861L85.2676 114.664H85.1973C84.916 115.016 84.6289 115.303 84.3359 115.525C84.043 115.748 83.7061 115.912 83.3252 116.018C82.9443 116.123 82.4814 116.176 81.9365 116.176C81.3564 116.176 80.835 116.064 80.3721 115.842C79.915 115.619 79.5547 115.279 79.291 114.822C79.0273 114.359 78.8955 113.773 78.8955 113.064C78.8955 112.021 79.2617 111.254 79.9941 110.762C80.7266 110.264 81.8252 109.988 83.29 109.936L84.9951 109.883V109.452C84.9951 108.937 84.8604 108.559 84.5908 108.318C84.3213 108.078 83.9463 107.958 83.4658 107.958C82.9912 107.958 82.5254 108.025 82.0684 108.16C81.6113 108.295 81.1543 108.465 80.6973 108.67L79.8096 106.859C80.3311 106.584 80.9141 106.367 81.5586 106.209C82.209 106.051 82.8799 105.972 83.5713 105.972ZM84.9951 111.447L83.958 111.482C83.0908 111.506 82.4873 111.661 82.1475 111.948C81.8135 112.235 81.6465 112.613 81.6465 113.082C81.6465 113.492 81.7666 113.785 82.0068 113.961C82.2471 114.131 82.5605 114.216 82.9473 114.216C83.5215 114.216 84.0049 114.046 84.3975 113.706C84.7959 113.366 84.9951 112.883 84.9951 112.256V111.447ZM97.2822 113.082C97.2822 113.75 97.124 114.315 96.8076 114.778C96.4971 115.235 96.0312 115.584 95.4102 115.824C94.7891 116.059 94.0156 116.176 93.0898 116.176C92.4043 116.176 91.8154 116.132 91.3232 116.044C90.8369 115.956 90.3447 115.81 89.8467 115.604V113.39C90.3799 113.63 90.9512 113.829 91.5605 113.987C92.1758 114.14 92.7148 114.216 93.1777 114.216C93.6992 114.216 94.0713 114.14 94.2939 113.987C94.5225 113.829 94.6367 113.624 94.6367 113.372C94.6367 113.208 94.5898 113.062 94.4961 112.933C94.4082 112.798 94.2148 112.648 93.916 112.484C93.6172 112.314 93.1484 112.095 92.5098 111.825C91.8945 111.567 91.3877 111.307 90.9893 111.043C90.5967 110.779 90.3037 110.469 90.1104 110.111C89.9229 109.748 89.8291 109.288 89.8291 108.731C89.8291 107.823 90.1807 107.141 90.8838 106.684C91.5928 106.221 92.5391 105.989 93.7227 105.989C94.332 105.989 94.9121 106.051 95.4629 106.174C96.0195 106.297 96.5908 106.493 97.1768 106.763L96.3682 108.696C95.8818 108.485 95.4219 108.312 94.9883 108.178C94.5605 108.043 94.124 107.976 93.6787 107.976C93.2861 107.976 92.9902 108.028 92.791 108.134C92.5918 108.239 92.4922 108.4 92.4922 108.617C92.4922 108.775 92.542 108.916 92.6416 109.039C92.7471 109.162 92.9463 109.3 93.2393 109.452C93.5381 109.599 93.9746 109.789 94.5488 110.023C95.1055 110.252 95.5889 110.492 95.999 110.744C96.4092 110.99 96.7256 111.298 96.9482 111.667C97.1709 112.03 97.2822 112.502 97.2822 113.082ZM106.229 113.082C106.229 113.75 106.071 114.315 105.755 114.778C105.444 115.235 104.979 115.584 104.357 115.824C103.736 116.059 102.963 116.176 102.037 116.176C101.352 116.176 100.763 116.132 100.271 116.044C99.7842 115.956 99.292 115.81 98.7939 115.604V113.39C99.3271 113.63 99.8984 113.829 100.508 113.987C101.123 114.14 101.662 114.216 102.125 114.216C102.646 114.216 103.019 114.14 103.241 113.987C103.47 113.829 103.584 113.624 103.584 113.372C103.584 113.208 103.537 113.062 103.443 112.933C103.355 112.798 103.162 112.648 102.863 112.484C102.564 112.314 102.096 112.095 101.457 111.825C100.842 111.567 100.335 111.307 99.9365 111.043C99.5439 110.779 99.251 110.469 99.0576 110.111C98.8701 109.748 98.7764 109.288 98.7764 108.731C98.7764 107.823 99.1279 107.141 99.8311 106.684C100.54 106.221 101.486 105.989 102.67 105.989C103.279 105.989 103.859 106.051 104.41 106.174C104.967 106.297 105.538 106.493 106.124 106.763L105.315 108.696C104.829 108.485 104.369 108.312 103.936 108.178C103.508 108.043 103.071 107.976 102.626 107.976C102.233 107.976 101.938 108.028 101.738 108.134C101.539 108.239 101.439 108.4 101.439 108.617C101.439 108.775 101.489 108.916 101.589 109.039C101.694 109.162 101.894 109.3 102.187 109.452C102.485 109.599 102.922 109.789 103.496 110.023C104.053 110.252 104.536 110.492 104.946 110.744C105.356 110.99 105.673 111.298 105.896 111.667C106.118 112.03 106.229 112.502 106.229 113.082ZM117.339 106.174V116H115.282L114.922 114.743H114.781C114.57 115.077 114.307 115.35 113.99 115.561C113.674 115.771 113.325 115.927 112.944 116.026C112.563 116.126 112.168 116.176 111.758 116.176C111.055 116.176 110.442 116.053 109.921 115.807C109.399 115.555 108.992 115.165 108.699 114.638C108.412 114.11 108.269 113.425 108.269 112.581V106.174H110.949V111.913C110.949 112.616 111.075 113.146 111.327 113.504C111.579 113.861 111.98 114.04 112.531 114.04C113.076 114.04 113.504 113.917 113.814 113.671C114.125 113.419 114.342 113.053 114.465 112.572C114.594 112.086 114.658 111.494 114.658 110.797V106.174H117.339ZM125.636 105.989C125.771 105.989 125.926 105.998 126.102 106.016C126.283 106.027 126.43 106.045 126.541 106.068L126.339 108.582C126.251 108.553 126.125 108.532 125.961 108.521C125.803 108.503 125.665 108.494 125.548 108.494C125.202 108.494 124.865 108.538 124.537 108.626C124.215 108.714 123.925 108.857 123.667 109.057C123.409 109.25 123.204 109.508 123.052 109.83C122.905 110.146 122.832 110.536 122.832 110.999V116H120.151V106.174H122.182L122.577 107.826H122.709C122.902 107.492 123.143 107.188 123.43 106.912C123.723 106.631 124.054 106.408 124.423 106.244C124.798 106.074 125.202 105.989 125.636 105.989ZM132.377 105.989C133.285 105.989 134.067 106.165 134.724 106.517C135.38 106.862 135.887 107.366 136.244 108.028C136.602 108.69 136.78 109.499 136.78 110.454V111.755H130.443C130.473 112.511 130.698 113.105 131.12 113.539C131.548 113.967 132.14 114.181 132.896 114.181C133.522 114.181 134.097 114.116 134.618 113.987C135.14 113.858 135.676 113.665 136.227 113.407V115.481C135.74 115.722 135.23 115.897 134.697 116.009C134.17 116.12 133.528 116.176 132.772 116.176C131.788 116.176 130.915 115.994 130.153 115.631C129.397 115.268 128.803 114.714 128.369 113.97C127.941 113.226 127.728 112.288 127.728 111.157C127.728 110.009 127.921 109.054 128.308 108.292C128.7 107.524 129.245 106.95 129.942 106.569C130.64 106.183 131.451 105.989 132.377 105.989ZM132.395 107.896C131.873 107.896 131.439 108.063 131.094 108.397C130.754 108.731 130.558 109.256 130.505 109.971H134.267C134.261 109.572 134.188 109.218 134.047 108.907C133.912 108.597 133.707 108.351 133.432 108.169C133.162 107.987 132.816 107.896 132.395 107.896ZM23.9639 129.233C23.4424 129.233 22.9795 129.336 22.5752 129.541C22.1768 129.74 21.8398 130.03 21.5645 130.411C21.2949 130.792 21.0898 131.252 20.9492 131.791C20.8086 132.33 20.7383 132.937 20.7383 133.61C20.7383 134.519 20.8496 135.295 21.0723 135.939C21.3008 136.578 21.6523 137.067 22.127 137.407C22.6016 137.741 23.2139 137.908 23.9639 137.908C24.4854 137.908 25.0068 137.85 25.5283 137.732C26.0557 137.615 26.627 137.448 27.2422 137.231V139.517C26.6738 139.751 26.1143 139.918 25.5635 140.018C25.0127 140.123 24.3945 140.176 23.709 140.176C22.3848 140.176 21.2949 139.903 20.4395 139.358C19.5898 138.808 18.96 138.04 18.5498 137.056C18.1396 136.065 17.9346 134.911 17.9346 133.593C17.9346 132.62 18.0664 131.729 18.3301 130.921C18.5938 130.112 18.9805 129.412 19.4902 128.82C20 128.229 20.6299 127.771 21.3799 127.449C22.1299 127.127 22.9912 126.966 23.9639 126.966C24.6025 126.966 25.2412 127.048 25.8799 127.212C26.5244 127.37 27.1396 127.59 27.7256 127.871L26.8467 130.086C26.3662 129.857 25.8828 129.658 25.3965 129.488C24.9102 129.318 24.4326 129.233 23.9639 129.233ZM38.7031 135.069C38.7031 135.89 38.5918 136.616 38.3691 137.249C38.1523 137.882 37.833 138.418 37.4111 138.857C36.9951 139.291 36.4912 139.619 35.8994 139.842C35.3135 140.064 34.6514 140.176 33.9131 140.176C33.2217 140.176 32.5859 140.064 32.0059 139.842C31.4316 139.619 30.9307 139.291 30.5029 138.857C30.0811 138.418 29.7529 137.882 29.5186 137.249C29.29 136.616 29.1758 135.89 29.1758 135.069C29.1758 133.979 29.3691 133.057 29.7559 132.301C30.1426 131.545 30.6934 130.971 31.4082 130.578C32.123 130.186 32.9756 129.989 33.9658 129.989C34.8857 129.989 35.7002 130.186 36.4092 130.578C37.124 130.971 37.6836 131.545 38.0879 132.301C38.498 133.057 38.7031 133.979 38.7031 135.069ZM31.9092 135.069C31.9092 135.714 31.9795 136.256 32.1201 136.695C32.2607 137.135 32.4805 137.466 32.7793 137.688C33.0781 137.911 33.4678 138.022 33.9482 138.022C34.4229 138.022 34.8066 137.911 35.0996 137.688C35.3984 137.466 35.6152 137.135 35.75 136.695C35.8906 136.256 35.9609 135.714 35.9609 135.069C35.9609 134.419 35.8906 133.88 35.75 133.452C35.6152 133.019 35.3984 132.693 35.0996 132.477C34.8008 132.26 34.4111 132.151 33.9307 132.151C33.2217 132.151 32.7061 132.395 32.3838 132.881C32.0674 133.367 31.9092 134.097 31.9092 135.069ZM52.458 129.989C53.5713 129.989 54.4121 130.276 54.9805 130.851C55.5547 131.419 55.8418 132.333 55.8418 133.593V140H53.1523V134.261C53.1523 133.558 53.0322 133.027 52.792 132.67C52.5518 132.312 52.1797 132.134 51.6758 132.134C50.9668 132.134 50.4629 132.389 50.1641 132.898C49.8652 133.402 49.7158 134.126 49.7158 135.069V140H47.0352V134.261C47.0352 133.792 46.9824 133.399 46.877 133.083C46.7715 132.767 46.6104 132.529 46.3936 132.371C46.1768 132.213 45.8984 132.134 45.5586 132.134C45.0605 132.134 44.668 132.26 44.3809 132.512C44.0996 132.758 43.8975 133.124 43.7744 133.61C43.6572 134.091 43.5986 134.68 43.5986 135.377V140H40.918V130.174H42.9658L43.3262 131.431H43.4756C43.6748 131.091 43.9238 130.815 44.2227 130.604C44.5273 130.394 44.8613 130.238 45.2246 130.139C45.5879 130.039 45.957 129.989 46.332 129.989C47.0527 129.989 47.6621 130.106 48.1602 130.341C48.6641 130.575 49.0508 130.938 49.3203 131.431H49.5576C49.8506 130.927 50.2637 130.561 50.7969 130.332C51.3359 130.104 51.8896 129.989 52.458 129.989ZM70.1416 129.989C71.2549 129.989 72.0957 130.276 72.6641 130.851C73.2383 131.419 73.5254 132.333 73.5254 133.593V140H70.8359V134.261C70.8359 133.558 70.7158 133.027 70.4756 132.67C70.2354 132.312 69.8633 132.134 69.3594 132.134C68.6504 132.134 68.1465 132.389 67.8477 132.898C67.5488 133.402 67.3994 134.126 67.3994 135.069V140H64.7188V134.261C64.7188 133.792 64.666 133.399 64.5605 133.083C64.4551 132.767 64.2939 132.529 64.0771 132.371C63.8604 132.213 63.582 132.134 63.2422 132.134C62.7441 132.134 62.3516 132.26 62.0645 132.512C61.7832 132.758 61.5811 133.124 61.458 133.61C61.3408 134.091 61.2822 134.68 61.2822 135.377V140H58.6016V130.174H60.6494L61.0098 131.431H61.1592C61.3584 131.091 61.6074 130.815 61.9062 130.604C62.2109 130.394 62.5449 130.238 62.9082 130.139C63.2715 130.039 63.6406 129.989 64.0156 129.989C64.7363 129.989 65.3457 130.106 65.8438 130.341C66.3477 130.575 66.7344 130.938 67.0039 131.431H67.2412C67.5342 130.927 67.9473 130.561 68.4805 130.332C69.0195 130.104 69.5732 129.989 70.1416 129.989ZM85.3027 130.174V140H83.2461L82.8857 138.743H82.7451C82.5342 139.077 82.2705 139.35 81.9541 139.561C81.6377 139.771 81.2891 139.927 80.9082 140.026C80.5273 140.126 80.1318 140.176 79.7217 140.176C79.0186 140.176 78.4062 140.053 77.8848 139.807C77.3633 139.555 76.9561 139.165 76.6631 138.638C76.376 138.11 76.2324 137.425 76.2324 136.581V130.174H78.9131V135.913C78.9131 136.616 79.0391 137.146 79.291 137.504C79.543 137.861 79.9443 138.04 80.4951 138.04C81.04 138.04 81.4678 137.917 81.7783 137.671C82.0889 137.419 82.3057 137.053 82.4287 136.572C82.5576 136.086 82.6221 135.494 82.6221 134.797V130.174H85.3027ZM93.6963 129.989C94.7451 129.989 95.5889 130.276 96.2275 130.851C96.8662 131.419 97.1855 132.333 97.1855 133.593V140H94.5049V134.261C94.5049 133.558 94.376 133.027 94.1182 132.67C93.8662 132.312 93.4678 132.134 92.9229 132.134C92.1025 132.134 91.543 132.412 91.2441 132.969C90.9453 133.525 90.7959 134.328 90.7959 135.377V140H88.1152V130.174H90.1631L90.5234 131.431H90.6729C90.8838 131.091 91.1445 130.815 91.4551 130.604C91.7715 130.394 92.1201 130.238 92.501 130.139C92.8877 130.039 93.2861 129.989 93.6963 129.989ZM102.626 130.174V140H99.9453V130.174H102.626ZM101.29 126.324C101.688 126.324 102.031 126.418 102.318 126.605C102.605 126.787 102.749 127.13 102.749 127.634C102.749 128.132 102.605 128.478 102.318 128.671C102.031 128.858 101.688 128.952 101.29 128.952C100.886 128.952 100.54 128.858 100.253 128.671C99.9717 128.478 99.8311 128.132 99.8311 127.634C99.8311 127.13 99.9717 126.787 100.253 126.605C100.54 126.418 100.886 126.324 101.29 126.324ZM109.587 138.04C109.88 138.04 110.164 138.011 110.439 137.952C110.721 137.894 110.999 137.82 111.274 137.732V139.728C110.987 139.856 110.63 139.962 110.202 140.044C109.78 140.132 109.317 140.176 108.813 140.176C108.228 140.176 107.7 140.082 107.231 139.895C106.769 139.701 106.402 139.37 106.133 138.901C105.869 138.427 105.737 137.768 105.737 136.924V132.187H104.454V131.053L105.931 130.156L106.704 128.082H108.418V130.174H111.169V132.187H108.418V136.924C108.418 137.299 108.523 137.58 108.734 137.768C108.951 137.949 109.235 138.04 109.587 138.04ZM111.863 130.174H114.799L116.653 135.702C116.712 135.878 116.762 136.057 116.803 136.238C116.844 136.42 116.879 136.607 116.908 136.801C116.938 136.994 116.961 137.196 116.979 137.407H117.031C117.066 137.091 117.113 136.795 117.172 136.52C117.236 136.244 117.315 135.972 117.409 135.702L119.229 130.174H122.103L117.945 141.257C117.693 141.937 117.365 142.502 116.961 142.953C116.557 143.41 116.091 143.753 115.563 143.981C115.042 144.21 114.468 144.324 113.841 144.324C113.536 144.324 113.272 144.307 113.05 144.271C112.827 144.242 112.637 144.21 112.479 144.175V142.048C112.602 142.077 112.757 142.104 112.944 142.127C113.132 142.15 113.328 142.162 113.533 142.162C113.908 142.162 114.23 142.083 114.5 141.925C114.77 141.767 114.995 141.553 115.177 141.283C115.358 141.02 115.502 140.729 115.607 140.413L115.766 139.93L111.863 130.174Z" fill="#475467"/>
<g clip-path="url(#clip3_457_658)">
<path d="M105.108 32.0004V31.6004C104.908 30.5407 104.341 29.585 103.508 28.9004L103.008 28.5004C93.1077 21.2309 82.404 15.1241 71.1081 10.3004C70.1422 9.93111 69.074 9.93111 68.1081 10.3004H67.9081C56.4921 15.2762 45.6875 21.5509 35.7081 29.0004C34.9081 29.7004 34.4081 30.6004 34.2081 31.7004V32.2004C32.8212 44.2272 32.8212 56.3736 34.2081 68.4004C34.2081 69.6004 34.9081 70.7004 35.9081 71.4004L36.2081 71.6004C45.9385 78.8022 56.4765 84.8431 67.6081 89.6004L67.9081 89.8004C69.0081 90.2004 70.2081 90.2004 71.3081 89.8004H71.4081L71.7081 89.6004C82.7774 84.781 93.2754 78.7438 103.008 71.6004L103.308 71.5004C104.308 70.7004 104.908 69.5004 105.108 68.4004C106.519 56.3081 106.519 44.0927 105.108 32.0004Z" fill="url(#paint0_linear_457_658)"/>
<path d="M105.108 32.0004V31.6004C104.908 30.5407 104.341 29.585 103.508 28.9004L103.008 28.5004C93.1077 21.2309 82.404 15.1241 71.1081 10.3004C70.1422 9.93111 69.074 9.93111 68.1081 10.3004H67.9081C56.4921 15.2762 45.6875 21.5509 35.7081 29.0004C34.9081 29.7004 34.4081 30.6004 34.2081 31.7004V32.2004C32.8212 44.2272 32.8212 56.3736 34.2081 68.4004C34.2081 69.6004 34.9081 70.7004 35.9081 71.4004L36.2081 71.6004C45.9385 78.8022 56.4765 84.8431 67.6081 89.6004L67.9081 89.8004C69.0081 90.2004 70.2081 90.2004 71.3081 89.8004H71.4081L71.7081 89.6004C82.7774 84.781 93.2754 78.7438 103.008 71.6004L103.308 71.5004C104.308 70.7004 104.908 69.5004 105.108 68.4004C106.519 56.3081 106.519 44.0927 105.108 32.0004Z" fill="url(#paint1_linear_457_658)"/>
</g>
<g clip-path="url(#clip4_457_658)">
<path d="M75.1094 61.9062C74.2844 61.9062 73.7344 61.3563 73.7344 60.5312V57.7812C73.7344 55.4438 71.9469 53.6562 69.6094 53.6562H59.9844C57.6469 53.6562 55.8594 55.4438 55.8594 57.7812V60.5312C55.8594 61.3563 55.3094 61.9062 54.4844 61.9062C53.6594 61.9062 53.1094 61.3563 53.1094 60.5312V57.7812C53.1094 53.9312 56.1344 50.9062 59.9844 50.9062H69.6094C73.4594 50.9062 76.4844 53.9312 76.4844 57.7812V60.5312C76.4844 61.3563 75.9344 61.9062 75.1094 61.9062ZM64.7969 48.1562C60.9469 48.1562 57.9219 45.1313 57.9219 41.2812C57.9219 37.4313 60.9469 34.4062 64.7969 34.4062C68.6469 34.4062 71.6719 37.4313 71.6719 41.2812C71.6719 45.1313 68.6469 48.1562 64.7969 48.1562ZM64.7969 37.1562C62.4594 37.1562 60.6719 38.9437 60.6719 41.2812C60.6719 43.6187 62.4594 45.4062 64.7969 45.4062C67.1344 45.4062 68.9219 43.6187 68.9219 41.2812C68.9219 38.9437 67.1344 37.1562 64.7969 37.1562ZM79.2344 50.9062C78.8219 50.9062 78.5469 50.7687 78.2719 50.4937L75.5219 47.7437C74.9719 47.1937 74.9719 46.3688 75.5219 45.8188C76.0719 45.2688 76.8969 45.2688 77.4469 45.8188L79.2344 47.6063L83.7719 43.0688C84.3219 42.5188 85.1469 42.5188 85.6969 43.0688C86.2469 43.6188 86.2469 44.4437 85.6969 44.9937L80.1969 50.4937C79.9219 50.7687 79.6469 50.9062 79.2344 50.9062Z" fill="white"/>
</g>
<path d="M346.891 128H339.49V115.15H346.891V117.383H342.215V120.204H346.565V122.437H342.215V125.75H346.891V128ZM354.95 117.989C355.999 117.989 356.843 118.276 357.481 118.851C358.12 119.419 358.439 120.333 358.439 121.593V128H355.759V122.261C355.759 121.558 355.63 121.027 355.372 120.67C355.12 120.312 354.722 120.134 354.177 120.134C353.356 120.134 352.797 120.412 352.498 120.969C352.199 121.525 352.05 122.328 352.05 123.377V128H349.369V118.174H351.417L351.777 119.431H351.927C352.138 119.091 352.398 118.815 352.709 118.604C353.025 118.394 353.374 118.238 353.755 118.139C354.142 118.039 354.54 117.989 354.95 117.989ZM366.684 117.989C366.818 117.989 366.974 117.998 367.149 118.016C367.331 118.027 367.478 118.045 367.589 118.068L367.387 120.582C367.299 120.553 367.173 120.532 367.009 120.521C366.851 120.503 366.713 120.494 366.596 120.494C366.25 120.494 365.913 120.538 365.585 120.626C365.263 120.714 364.973 120.857 364.715 121.057C364.457 121.25 364.252 121.508 364.1 121.83C363.953 122.146 363.88 122.536 363.88 122.999V128H361.199V118.174H363.229L363.625 119.826H363.757C363.95 119.492 364.19 119.188 364.478 118.912C364.771 118.631 365.102 118.408 365.471 118.244C365.846 118.074 366.25 117.989 366.684 117.989ZM378.303 123.069C378.303 123.89 378.191 124.616 377.969 125.249C377.752 125.882 377.433 126.418 377.011 126.857C376.595 127.291 376.091 127.619 375.499 127.842C374.913 128.064 374.251 128.176 373.513 128.176C372.821 128.176 372.186 128.064 371.605 127.842C371.031 127.619 370.53 127.291 370.103 126.857C369.681 126.418 369.353 125.882 369.118 125.249C368.89 124.616 368.775 123.89 368.775 123.069C368.775 121.979 368.969 121.057 369.355 120.301C369.742 119.545 370.293 118.971 371.008 118.578C371.723 118.186 372.575 117.989 373.565 117.989C374.485 117.989 375.3 118.186 376.009 118.578C376.724 118.971 377.283 119.545 377.688 120.301C378.098 121.057 378.303 121.979 378.303 123.069ZM371.509 123.069C371.509 123.714 371.579 124.256 371.72 124.695C371.86 125.135 372.08 125.466 372.379 125.688C372.678 125.911 373.067 126.022 373.548 126.022C374.022 126.022 374.406 125.911 374.699 125.688C374.998 125.466 375.215 125.135 375.35 124.695C375.49 124.256 375.561 123.714 375.561 123.069C375.561 122.419 375.49 121.88 375.35 121.452C375.215 121.019 374.998 120.693 374.699 120.477C374.4 120.26 374.011 120.151 373.53 120.151C372.821 120.151 372.306 120.395 371.983 120.881C371.667 121.367 371.509 122.097 371.509 123.069ZM383.198 128H380.518V114.324H383.198V128ZM388.7 128H386.02V114.324H388.7V128ZM400.337 126.04C400.63 126.04 400.914 126.011 401.189 125.952C401.471 125.894 401.749 125.82 402.024 125.732V127.728C401.737 127.856 401.38 127.962 400.952 128.044C400.53 128.132 400.067 128.176 399.563 128.176C398.978 128.176 398.45 128.082 397.981 127.895C397.519 127.701 397.152 127.37 396.883 126.901C396.619 126.427 396.487 125.768 396.487 124.924V120.187H395.204V119.053L396.681 118.156L397.454 116.082H399.168V118.174H401.919V120.187H399.168V124.924C399.168 125.299 399.273 125.58 399.484 125.768C399.701 125.949 399.985 126.04 400.337 126.04ZM412.949 123.069C412.949 123.89 412.838 124.616 412.615 125.249C412.398 125.882 412.079 126.418 411.657 126.857C411.241 127.291 410.737 127.619 410.146 127.842C409.56 128.064 408.897 128.176 408.159 128.176C407.468 128.176 406.832 128.064 406.252 127.842C405.678 127.619 405.177 127.291 404.749 126.857C404.327 126.418 403.999 125.882 403.765 125.249C403.536 124.616 403.422 123.89 403.422 123.069C403.422 121.979 403.615 121.057 404.002 120.301C404.389 119.545 404.939 118.971 405.654 118.578C406.369 118.186 407.222 117.989 408.212 117.989C409.132 117.989 409.946 118.186 410.655 118.578C411.37 118.971 411.93 119.545 412.334 120.301C412.744 121.057 412.949 121.979 412.949 123.069ZM406.155 123.069C406.155 123.714 406.226 124.256 406.366 124.695C406.507 125.135 406.727 125.466 407.025 125.688C407.324 125.911 407.714 126.022 408.194 126.022C408.669 126.022 409.053 125.911 409.346 125.688C409.645 125.466 409.861 125.135 409.996 124.695C410.137 124.256 410.207 123.714 410.207 123.069C410.207 122.419 410.137 121.88 409.996 121.452C409.861 121.019 409.645 120.693 409.346 120.477C409.047 120.26 408.657 120.151 408.177 120.151C407.468 120.151 406.952 120.395 406.63 120.881C406.313 121.367 406.155 122.097 406.155 123.069ZM424.155 115.15C425.813 115.15 427.023 115.508 427.785 116.223C428.547 116.932 428.928 117.91 428.928 119.158C428.928 119.721 428.843 120.26 428.673 120.775C428.503 121.285 428.225 121.739 427.838 122.138C427.457 122.536 426.947 122.853 426.309 123.087C425.67 123.315 424.882 123.43 423.944 123.43H422.775V128H420.051V115.15H424.155ZM424.015 117.383H422.775V121.197H423.672C424.182 121.197 424.624 121.13 424.999 120.995C425.374 120.86 425.664 120.649 425.869 120.362C426.074 120.075 426.177 119.706 426.177 119.255C426.177 118.622 426.001 118.153 425.649 117.849C425.298 117.538 424.753 117.383 424.015 117.383ZM436.627 117.989C436.762 117.989 436.917 117.998 437.093 118.016C437.274 118.027 437.421 118.045 437.532 118.068L437.33 120.582C437.242 120.553 437.116 120.532 436.952 120.521C436.794 120.503 436.656 120.494 436.539 120.494C436.193 120.494 435.856 120.538 435.528 120.626C435.206 120.714 434.916 120.857 434.658 121.057C434.4 121.25 434.195 121.508 434.043 121.83C433.896 122.146 433.823 122.536 433.823 122.999V128H431.143V118.174H433.173L433.568 119.826H433.7C433.894 119.492 434.134 119.188 434.421 118.912C434.714 118.631 435.045 118.408 435.414 118.244C435.789 118.074 436.193 117.989 436.627 117.989ZM448.246 123.069C448.246 123.89 448.135 124.616 447.912 125.249C447.695 125.882 447.376 126.418 446.954 126.857C446.538 127.291 446.034 127.619 445.442 127.842C444.856 128.064 444.194 128.176 443.456 128.176C442.765 128.176 442.129 128.064 441.549 127.842C440.975 127.619 440.474 127.291 440.046 126.857C439.624 126.418 439.296 125.882 439.062 125.249C438.833 124.616 438.719 123.89 438.719 123.069C438.719 121.979 438.912 121.057 439.299 120.301C439.686 119.545 440.236 118.971 440.951 118.578C441.666 118.186 442.519 117.989 443.509 117.989C444.429 117.989 445.243 118.186 445.952 118.578C446.667 118.971 447.227 119.545 447.631 120.301C448.041 121.057 448.246 121.979 448.246 123.069ZM441.452 123.069C441.452 123.714 441.522 124.256 441.663 124.695C441.804 125.135 442.023 125.466 442.322 125.688C442.621 125.911 443.011 126.022 443.491 126.022C443.966 126.022 444.35 125.911 444.643 125.688C444.941 125.466 445.158 125.135 445.293 124.695C445.434 124.256 445.504 123.714 445.504 123.069C445.504 122.419 445.434 121.88 445.293 121.452C445.158 121.019 444.941 120.693 444.643 120.477C444.344 120.26 443.954 120.151 443.474 120.151C442.765 120.151 442.249 120.395 441.927 120.881C441.61 121.367 441.452 122.097 441.452 123.069ZM453.335 132.324C451.964 132.324 450.915 132.084 450.188 131.604C449.468 131.129 449.107 130.461 449.107 129.6C449.107 129.008 449.292 128.513 449.661 128.114C450.03 127.716 450.572 127.432 451.287 127.262C451.012 127.145 450.771 126.954 450.566 126.69C450.361 126.421 450.259 126.137 450.259 125.838C450.259 125.463 450.367 125.152 450.584 124.906C450.801 124.654 451.114 124.408 451.524 124.168C451.009 123.945 450.599 123.588 450.294 123.096C449.995 122.604 449.846 122.023 449.846 121.355C449.846 120.641 450.001 120.034 450.312 119.536C450.628 119.032 451.085 118.648 451.683 118.385C452.286 118.121 453.019 117.989 453.88 117.989C454.062 117.989 454.272 118.001 454.513 118.024C454.753 118.048 454.973 118.074 455.172 118.104C455.377 118.133 455.515 118.156 455.585 118.174H459.013V119.536L457.475 119.932C457.615 120.148 457.721 120.38 457.791 120.626C457.861 120.872 457.896 121.133 457.896 121.408C457.896 122.463 457.527 123.286 456.789 123.878C456.057 124.464 455.037 124.757 453.73 124.757C453.42 124.739 453.127 124.716 452.852 124.687C452.717 124.792 452.614 124.903 452.544 125.021C452.474 125.138 452.438 125.261 452.438 125.39C452.438 125.519 452.491 125.627 452.597 125.715C452.708 125.797 452.872 125.861 453.089 125.908C453.312 125.949 453.587 125.97 453.915 125.97H455.585C456.663 125.97 457.483 126.201 458.046 126.664C458.614 127.127 458.898 127.807 458.898 128.703C458.898 129.852 458.418 130.742 457.457 131.375C456.502 132.008 455.128 132.324 453.335 132.324ZM453.449 130.575C454.088 130.575 454.636 130.514 455.093 130.391C455.556 130.273 455.91 130.104 456.156 129.881C456.402 129.664 456.525 129.403 456.525 129.099C456.525 128.853 456.452 128.656 456.306 128.51C456.165 128.369 455.948 128.27 455.655 128.211C455.368 128.152 454.999 128.123 454.548 128.123H453.159C452.831 128.123 452.535 128.176 452.271 128.281C452.014 128.387 451.809 128.533 451.656 128.721C451.504 128.914 451.428 129.137 451.428 129.389C451.428 129.758 451.604 130.048 451.955 130.259C452.312 130.47 452.811 130.575 453.449 130.575ZM453.88 123.122C454.384 123.122 454.753 122.967 454.987 122.656C455.222 122.346 455.339 121.924 455.339 121.391C455.339 120.799 455.216 120.356 454.97 120.063C454.729 119.765 454.366 119.615 453.88 119.615C453.388 119.615 453.019 119.765 452.772 120.063C452.526 120.356 452.403 120.799 452.403 121.391C452.403 121.924 452.523 122.346 452.764 122.656C453.01 122.967 453.382 123.122 453.88 123.122ZM466.123 117.989C466.258 117.989 466.413 117.998 466.589 118.016C466.771 118.027 466.917 118.045 467.028 118.068L466.826 120.582C466.738 120.553 466.612 120.532 466.448 120.521C466.29 120.503 466.152 120.494 466.035 120.494C465.689 120.494 465.353 120.538 465.024 120.626C464.702 120.714 464.412 120.857 464.154 121.057C463.896 121.25 463.691 121.508 463.539 121.83C463.393 122.146 463.319 122.536 463.319 122.999V128H460.639V118.174H462.669L463.064 119.826H463.196C463.39 119.492 463.63 119.188 463.917 118.912C464.21 118.631 464.541 118.408 464.91 118.244C465.285 118.074 465.689 117.989 466.123 117.989ZM472.838 117.972C474.156 117.972 475.167 118.259 475.87 118.833C476.573 119.407 476.925 120.28 476.925 121.452V128H475.053L474.534 126.664H474.464C474.183 127.016 473.896 127.303 473.603 127.525C473.31 127.748 472.973 127.912 472.592 128.018C472.211 128.123 471.748 128.176 471.203 128.176C470.623 128.176 470.102 128.064 469.639 127.842C469.182 127.619 468.821 127.279 468.558 126.822C468.294 126.359 468.162 125.773 468.162 125.064C468.162 124.021 468.528 123.254 469.261 122.762C469.993 122.264 471.092 121.988 472.557 121.936L474.262 121.883V121.452C474.262 120.937 474.127 120.559 473.857 120.318C473.588 120.078 473.213 119.958 472.732 119.958C472.258 119.958 471.792 120.025 471.335 120.16C470.878 120.295 470.421 120.465 469.964 120.67L469.076 118.859C469.598 118.584 470.181 118.367 470.825 118.209C471.476 118.051 472.146 117.972 472.838 117.972ZM474.262 123.447L473.225 123.482C472.357 123.506 471.754 123.661 471.414 123.948C471.08 124.235 470.913 124.613 470.913 125.082C470.913 125.492 471.033 125.785 471.273 125.961C471.514 126.131 471.827 126.216 472.214 126.216C472.788 126.216 473.271 126.046 473.664 125.706C474.062 125.366 474.262 124.883 474.262 124.256V123.447ZM491.233 117.989C492.347 117.989 493.188 118.276 493.756 118.851C494.33 119.419 494.617 120.333 494.617 121.593V128H491.928V122.261C491.928 121.558 491.808 121.027 491.567 120.67C491.327 120.312 490.955 120.134 490.451 120.134C489.742 120.134 489.238 120.389 488.939 120.898C488.641 121.402 488.491 122.126 488.491 123.069V128H485.811V122.261C485.811 121.792 485.758 121.399 485.652 121.083C485.547 120.767 485.386 120.529 485.169 120.371C484.952 120.213 484.674 120.134 484.334 120.134C483.836 120.134 483.443 120.26 483.156 120.512C482.875 120.758 482.673 121.124 482.55 121.61C482.433 122.091 482.374 122.68 482.374 123.377V128H479.693V118.174H481.741L482.102 119.431H482.251C482.45 119.091 482.699 118.815 482.998 118.604C483.303 118.394 483.637 118.238 484 118.139C484.363 118.039 484.732 117.989 485.107 117.989C485.828 117.989 486.438 118.106 486.936 118.341C487.439 118.575 487.826 118.938 488.096 119.431H488.333C488.626 118.927 489.039 118.561 489.572 118.332C490.111 118.104 490.665 117.989 491.233 117.989Z" fill="#475467"/>
<g clip-path="url(#clip5_457_658)">
<path d="M450.655 32.0004V31.6004C450.455 30.5407 449.888 29.585 449.055 28.9004L448.555 28.5004C438.655 21.2309 427.951 15.1241 416.655 10.3004C415.689 9.93111 414.621 9.93111 413.655 10.3004H413.455C402.039 15.2762 391.234 21.5509 381.255 29.0004C380.455 29.7004 379.955 30.6004 379.755 31.7004V32.2004C378.368 44.2272 378.368 56.3736 379.755 68.4004C379.755 69.6004 380.455 70.7004 381.455 71.4004L381.755 71.6004C391.485 78.8022 402.023 84.8431 413.155 89.6004L413.455 89.8004C414.555 90.2004 415.755 90.2004 416.855 89.8004H416.955L417.255 89.6004C428.324 84.781 438.822 78.7438 448.555 71.6004L448.855 71.5004C449.855 70.7004 450.455 69.5004 450.655 68.4004C452.066 56.3081 452.066 44.0927 450.655 32.0004Z" fill="#0192D9"/>
<path d="M450.655 32.0004V31.6004C450.455 30.5407 449.888 29.585 449.055 28.9004L448.555 28.5004C438.655 21.2309 427.951 15.1241 416.655 10.3004C415.689 9.93111 414.621 9.93111 413.655 10.3004H413.455C402.039 15.2762 391.234 21.5509 381.255 29.0004C380.455 29.7004 379.955 30.6004 379.755 31.7004V32.2004C378.368 44.2272 378.368 56.3736 379.755 68.4004C379.755 69.6004 380.455 70.7004 381.455 71.4004L381.755 71.6004C391.485 78.8022 402.023 84.8431 413.155 89.6004L413.455 89.8004C414.555 90.2004 415.755 90.2004 416.855 89.8004H416.955L417.255 89.6004C428.324 84.781 438.822 78.7438 448.555 71.6004L448.855 71.5004C449.855 70.7004 450.455 69.5004 450.655 68.4004C452.066 56.3081 452.066 44.0927 450.655 32.0004Z" fill="#0192D9"/>
<path d="M428.777 53.4375C429.229 53.4375 429.647 53.5181 430.034 53.6792C430.421 53.8403 430.765 54.0659 431.065 54.356C431.366 54.646 431.592 54.9844 431.742 55.3711C431.893 55.7578 431.979 56.1768 432 56.6279C432 57.0469 431.919 57.4551 431.758 57.8525C431.597 58.25 431.366 58.5991 431.065 58.8999L419.512 70.4854L413.438 72L414.952 65.9253L426.505 54.356C426.806 54.0552 427.155 53.8296 427.553 53.6792C427.95 53.5288 428.358 53.4482 428.777 53.4375ZM429.599 57.4497C429.825 57.2241 429.938 56.9502 429.938 56.6279C429.938 56.2949 429.83 56.0264 429.615 55.8223C429.4 55.6182 429.121 55.5107 428.777 55.5C428.627 55.5 428.482 55.5215 428.342 55.5645C428.203 55.6074 428.079 55.688 427.972 55.8062L416.821 66.9888L416.273 69.1641L418.449 68.6162L429.599 57.4497ZM409.312 53.4375H407.25V51.375H409.312V53.4375ZM423.75 53.4375H411.375V51.375H423.75V53.4375ZM407.25 57.5625H409.312V59.625H407.25V57.5625ZM409.312 47.25H407.25V45.1875H409.312V47.25ZM423.75 47.25H411.375V45.1875H423.75V47.25ZM405.188 65.8125H412.326L411.81 67.875H403.125V39H427.875V50.9722C427.155 51.0796 426.468 51.3159 425.812 51.6812V41.0625H405.188V65.8125ZM411.375 57.5625H419.657L417.595 59.625H411.375V57.5625Z" fill="white"/>
</g>
<path d="M683.868 128H681.144V117.418H677.654V115.15H687.357V117.418H683.868V128ZM693.149 117.972C694.468 117.972 695.479 118.259 696.182 118.833C696.885 119.407 697.236 120.28 697.236 121.452V128H695.364L694.846 126.664H694.775C694.494 127.016 694.207 127.303 693.914 127.525C693.621 127.748 693.284 127.912 692.903 128.018C692.522 128.123 692.06 128.176 691.515 128.176C690.935 128.176 690.413 128.064 689.95 127.842C689.493 127.619 689.133 127.279 688.869 126.822C688.605 126.359 688.474 125.773 688.474 125.064C688.474 124.021 688.84 123.254 689.572 122.762C690.305 122.264 691.403 121.988 692.868 121.936L694.573 121.883V121.452C694.573 120.937 694.438 120.559 694.169 120.318C693.899 120.078 693.524 119.958 693.044 119.958C692.569 119.958 692.104 120.025 691.646 120.16C691.189 120.295 690.732 120.465 690.275 120.67L689.388 118.859C689.909 118.584 690.492 118.367 691.137 118.209C691.787 118.051 692.458 117.972 693.149 117.972ZM694.573 123.447L693.536 123.482C692.669 123.506 692.065 123.661 691.726 123.948C691.392 124.235 691.225 124.613 691.225 125.082C691.225 125.492 691.345 125.785 691.585 125.961C691.825 126.131 692.139 126.216 692.525 126.216C693.1 126.216 693.583 126.046 693.976 125.706C694.374 125.366 694.573 124.883 694.573 124.256V123.447ZM702.686 114.324V120.441C702.686 120.811 702.671 121.18 702.642 121.549C702.612 121.918 702.58 122.287 702.545 122.656H702.58C702.762 122.398 702.946 122.144 703.134 121.892C703.327 121.64 703.532 121.396 703.749 121.162L706.5 118.174H709.523L705.621 122.437L709.761 128H706.667L703.837 124.019L702.686 124.941V128H700.005V114.324H702.686ZM715.219 117.989C716.127 117.989 716.909 118.165 717.565 118.517C718.222 118.862 718.729 119.366 719.086 120.028C719.443 120.69 719.622 121.499 719.622 122.454V123.755H713.285C713.314 124.511 713.54 125.105 713.962 125.539C714.39 125.967 714.981 126.181 715.737 126.181C716.364 126.181 716.938 126.116 717.46 125.987C717.981 125.858 718.518 125.665 719.068 125.407V127.481C718.582 127.722 718.072 127.897 717.539 128.009C717.012 128.12 716.37 128.176 715.614 128.176C714.63 128.176 713.757 127.994 712.995 127.631C712.239 127.268 711.645 126.714 711.211 125.97C710.783 125.226 710.569 124.288 710.569 123.157C710.569 122.009 710.763 121.054 711.149 120.292C711.542 119.524 712.087 118.95 712.784 118.569C713.481 118.183 714.293 117.989 715.219 117.989ZM715.236 119.896C714.715 119.896 714.281 120.063 713.936 120.397C713.596 120.731 713.399 121.256 713.347 121.971H717.108C717.103 121.572 717.029 121.218 716.889 120.907C716.754 120.597 716.549 120.351 716.273 120.169C716.004 119.987 715.658 119.896 715.236 119.896ZM734.555 128L733.623 124.941H728.938L728.007 128H725.071L729.606 115.098H732.938L737.49 128H734.555ZM732.973 122.656L732.041 119.668C731.982 119.469 731.903 119.214 731.804 118.903C731.71 118.587 731.613 118.268 731.514 117.945C731.42 117.617 731.344 117.333 731.285 117.093C731.227 117.333 731.145 117.632 731.039 117.989C730.939 118.341 730.843 118.675 730.749 118.991C730.655 119.308 730.588 119.533 730.547 119.668L729.624 122.656H732.973ZM745.761 125.082C745.761 125.75 745.603 126.315 745.286 126.778C744.976 127.235 744.51 127.584 743.889 127.824C743.268 128.059 742.494 128.176 741.568 128.176C740.883 128.176 740.294 128.132 739.802 128.044C739.315 127.956 738.823 127.81 738.325 127.604V125.39C738.858 125.63 739.43 125.829 740.039 125.987C740.654 126.14 741.193 126.216 741.656 126.216C742.178 126.216 742.55 126.14 742.772 125.987C743.001 125.829 743.115 125.624 743.115 125.372C743.115 125.208 743.068 125.062 742.975 124.933C742.887 124.798 742.693 124.648 742.395 124.484C742.096 124.314 741.627 124.095 740.988 123.825C740.373 123.567 739.866 123.307 739.468 123.043C739.075 122.779 738.782 122.469 738.589 122.111C738.401 121.748 738.308 121.288 738.308 120.731C738.308 119.823 738.659 119.141 739.362 118.684C740.071 118.221 741.018 117.989 742.201 117.989C742.811 117.989 743.391 118.051 743.941 118.174C744.498 118.297 745.069 118.493 745.655 118.763L744.847 120.696C744.36 120.485 743.9 120.312 743.467 120.178C743.039 120.043 742.603 119.976 742.157 119.976C741.765 119.976 741.469 120.028 741.27 120.134C741.07 120.239 740.971 120.4 740.971 120.617C740.971 120.775 741.021 120.916 741.12 121.039C741.226 121.162 741.425 121.3 741.718 121.452C742.017 121.599 742.453 121.789 743.027 122.023C743.584 122.252 744.067 122.492 744.478 122.744C744.888 122.99 745.204 123.298 745.427 123.667C745.649 124.03 745.761 124.502 745.761 125.082ZM754.708 125.082C754.708 125.75 754.55 126.315 754.233 126.778C753.923 127.235 753.457 127.584 752.836 127.824C752.215 128.059 751.441 128.176 750.516 128.176C749.83 128.176 749.241 128.132 748.749 128.044C748.263 127.956 747.771 127.81 747.272 127.604V125.39C747.806 125.63 748.377 125.829 748.986 125.987C749.602 126.14 750.141 126.216 750.604 126.216C751.125 126.216 751.497 126.14 751.72 125.987C751.948 125.829 752.062 125.624 752.062 125.372C752.062 125.208 752.016 125.062 751.922 124.933C751.834 124.798 751.641 124.648 751.342 124.484C751.043 124.314 750.574 124.095 749.936 123.825C749.32 123.567 748.813 123.307 748.415 123.043C748.022 122.779 747.729 122.469 747.536 122.111C747.349 121.748 747.255 121.288 747.255 120.731C747.255 119.823 747.606 119.141 748.31 118.684C749.019 118.221 749.965 117.989 751.148 117.989C751.758 117.989 752.338 118.051 752.889 118.174C753.445 118.297 754.017 118.493 754.603 118.763L753.794 120.696C753.308 120.485 752.848 120.312 752.414 120.178C751.986 120.043 751.55 119.976 751.104 119.976C750.712 119.976 750.416 120.028 750.217 120.134C750.018 120.239 749.918 120.4 749.918 120.617C749.918 120.775 749.968 120.916 750.067 121.039C750.173 121.162 750.372 121.3 750.665 121.452C750.964 121.599 751.4 121.789 751.975 122.023C752.531 122.252 753.015 122.492 753.425 122.744C753.835 122.99 754.151 123.298 754.374 123.667C754.597 124.03 754.708 124.502 754.708 125.082ZM760.852 117.989C761.76 117.989 762.542 118.165 763.198 118.517C763.854 118.862 764.361 119.366 764.719 120.028C765.076 120.69 765.255 121.499 765.255 122.454V123.755H758.918C758.947 124.511 759.173 125.105 759.595 125.539C760.022 125.967 760.614 126.181 761.37 126.181C761.997 126.181 762.571 126.116 763.093 125.987C763.614 125.858 764.15 125.665 764.701 125.407V127.481C764.215 127.722 763.705 127.897 763.172 128.009C762.645 128.12 762.003 128.176 761.247 128.176C760.263 128.176 759.39 127.994 758.628 127.631C757.872 127.268 757.277 126.714 756.844 125.97C756.416 125.226 756.202 124.288 756.202 123.157C756.202 122.009 756.396 121.054 756.782 120.292C757.175 119.524 757.72 118.95 758.417 118.569C759.114 118.183 759.926 117.989 760.852 117.989ZM760.869 119.896C760.348 119.896 759.914 120.063 759.568 120.397C759.229 120.731 759.032 121.256 758.979 121.971H762.741C762.735 121.572 762.662 121.218 762.521 120.907C762.387 120.597 762.182 120.351 761.906 120.169C761.637 119.987 761.291 119.896 760.869 119.896ZM774.29 125.082C774.29 125.75 774.132 126.315 773.815 126.778C773.505 127.235 773.039 127.584 772.418 127.824C771.797 128.059 771.023 128.176 770.098 128.176C769.412 128.176 768.823 128.132 768.331 128.044C767.845 127.956 767.353 127.81 766.854 127.604V125.39C767.388 125.63 767.959 125.829 768.568 125.987C769.184 126.14 769.723 126.216 770.186 126.216C770.707 126.216 771.079 126.14 771.302 125.987C771.53 125.829 771.645 125.624 771.645 125.372C771.645 125.208 771.598 125.062 771.504 124.933C771.416 124.798 771.223 124.648 770.924 124.484C770.625 124.314 770.156 124.095 769.518 123.825C768.902 123.567 768.396 123.307 767.997 123.043C767.604 122.779 767.312 122.469 767.118 122.111C766.931 121.748 766.837 121.288 766.837 120.731C766.837 119.823 767.188 119.141 767.892 118.684C768.601 118.221 769.547 117.989 770.73 117.989C771.34 117.989 771.92 118.051 772.471 118.174C773.027 118.297 773.599 118.493 774.185 118.763L773.376 120.696C772.89 120.485 772.43 120.312 771.996 120.178C771.568 120.043 771.132 119.976 770.687 119.976C770.294 119.976 769.998 120.028 769.799 120.134C769.6 120.239 769.5 120.4 769.5 120.617C769.5 120.775 769.55 120.916 769.649 121.039C769.755 121.162 769.954 121.3 770.247 121.452C770.546 121.599 770.982 121.789 771.557 122.023C772.113 122.252 772.597 122.492 773.007 122.744C773.417 122.99 773.733 123.298 773.956 123.667C774.179 124.03 774.29 124.502 774.29 125.082ZM787.922 117.989C789.035 117.989 789.876 118.276 790.444 118.851C791.019 119.419 791.306 120.333 791.306 121.593V128H788.616V122.261C788.616 121.558 788.496 121.027 788.256 120.67C788.016 120.312 787.644 120.134 787.14 120.134C786.431 120.134 785.927 120.389 785.628 120.898C785.329 121.402 785.18 122.126 785.18 123.069V128H782.499V122.261C782.499 121.792 782.446 121.399 782.341 121.083C782.235 120.767 782.074 120.529 781.857 120.371C781.641 120.213 781.362 120.134 781.022 120.134C780.524 120.134 780.132 120.26 779.845 120.512C779.563 120.758 779.361 121.124 779.238 121.61C779.121 122.091 779.062 122.68 779.062 123.377V128H776.382V118.174H778.43L778.79 119.431H778.939C779.139 119.091 779.388 118.815 779.687 118.604C779.991 118.394 780.325 118.238 780.688 118.139C781.052 118.039 781.421 117.989 781.796 117.989C782.517 117.989 783.126 118.106 783.624 118.341C784.128 118.575 784.515 118.938 784.784 119.431H785.021C785.314 118.927 785.728 118.561 786.261 118.332C786.8 118.104 787.354 117.989 787.922 117.989ZM798.117 117.989C799.025 117.989 799.808 118.165 800.464 118.517C801.12 118.862 801.627 119.366 801.984 120.028C802.342 120.69 802.521 121.499 802.521 122.454V123.755H796.184C796.213 124.511 796.438 125.105 796.86 125.539C797.288 125.967 797.88 126.181 798.636 126.181C799.263 126.181 799.837 126.116 800.358 125.987C800.88 125.858 801.416 125.665 801.967 125.407V127.481C801.48 127.722 800.971 127.897 800.438 128.009C799.91 128.12 799.269 128.176 798.513 128.176C797.528 128.176 796.655 127.994 795.894 127.631C795.138 127.268 794.543 126.714 794.109 125.97C793.682 125.226 793.468 124.288 793.468 123.157C793.468 122.009 793.661 121.054 794.048 120.292C794.44 119.524 794.985 118.95 795.683 118.569C796.38 118.183 797.191 117.989 798.117 117.989ZM798.135 119.896C797.613 119.896 797.18 120.063 796.834 120.397C796.494 120.731 796.298 121.256 796.245 121.971H800.007C800.001 121.572 799.928 121.218 799.787 120.907C799.652 120.597 799.447 120.351 799.172 120.169C798.902 119.987 798.557 119.896 798.135 119.896ZM810.281 117.989C811.33 117.989 812.174 118.276 812.812 118.851C813.451 119.419 813.771 120.333 813.771 121.593V128H811.09V122.261C811.09 121.558 810.961 121.027 810.703 120.67C810.451 120.312 810.053 120.134 809.508 120.134C808.688 120.134 808.128 120.412 807.829 120.969C807.53 121.525 807.381 122.328 807.381 123.377V128H804.7V118.174H806.748L807.108 119.431H807.258C807.469 119.091 807.729 118.815 808.04 118.604C808.356 118.394 808.705 118.238 809.086 118.139C809.473 118.039 809.871 117.989 810.281 117.989ZM820.67 126.04C820.963 126.04 821.247 126.011 821.522 125.952C821.804 125.894 822.082 125.82 822.357 125.732V127.728C822.07 127.856 821.713 127.962 821.285 128.044C820.863 128.132 820.4 128.176 819.896 128.176C819.311 128.176 818.783 128.082 818.314 127.895C817.852 127.701 817.485 127.37 817.216 126.901C816.952 126.427 816.82 125.768 816.82 124.924V120.187H815.537V119.053L817.014 118.156L817.787 116.082H819.501V118.174H822.252V120.187H819.501V124.924C819.501 125.299 819.606 125.58 819.817 125.768C820.034 125.949 820.318 126.04 820.67 126.04ZM831.208 125.082C831.208 125.75 831.05 126.315 830.733 126.778C830.423 127.235 829.957 127.584 829.336 127.824C828.715 128.059 827.941 128.176 827.016 128.176C826.33 128.176 825.741 128.132 825.249 128.044C824.763 127.956 824.271 127.81 823.772 127.604V125.39C824.306 125.63 824.877 125.829 825.486 125.987C826.102 126.14 826.641 126.216 827.104 126.216C827.625 126.216 827.997 126.14 828.22 125.987C828.448 125.829 828.562 125.624 828.562 125.372C828.562 125.208 828.516 125.062 828.422 124.933C828.334 124.798 828.141 124.648 827.842 124.484C827.543 124.314 827.074 124.095 826.436 123.825C825.82 123.567 825.313 123.307 824.915 123.043C824.522 122.779 824.229 122.469 824.036 122.111C823.849 121.748 823.755 121.288 823.755 120.731C823.755 119.823 824.106 119.141 824.81 118.684C825.519 118.221 826.465 117.989 827.648 117.989C828.258 117.989 828.838 118.051 829.389 118.174C829.945 118.297 830.517 118.493 831.103 118.763L830.294 120.696C829.808 120.485 829.348 120.312 828.914 120.178C828.486 120.043 828.05 119.976 827.604 119.976C827.212 119.976 826.916 120.028 826.717 120.134C826.518 120.239 826.418 120.4 826.418 120.617C826.418 120.775 826.468 120.916 826.567 121.039C826.673 121.162 826.872 121.3 827.165 121.452C827.464 121.599 827.9 121.789 828.475 122.023C829.031 122.252 829.515 122.492 829.925 122.744C830.335 122.99 830.651 123.298 830.874 123.667C831.097 124.03 831.208 124.502 831.208 125.082Z" fill="#475467"/>
<g clip-path="url(#clip6_457_658)">
<path d="M789.936 32.0004V31.6004C789.736 30.5407 789.17 29.585 788.336 28.9004L787.836 28.5004C777.936 21.2309 767.232 15.1241 755.936 10.3004C754.97 9.93111 753.902 9.93111 752.936 10.3004H752.736C741.32 15.2762 730.516 21.5509 720.536 29.0004C719.736 29.7004 719.236 30.6004 719.036 31.7004V32.2004C717.649 44.2272 717.649 56.3736 719.036 68.4004C719.036 69.6004 719.736 70.7004 720.736 71.4004L721.036 71.6004C730.767 78.8022 741.305 84.8431 752.436 89.6004L752.736 89.8004C753.836 90.2004 755.036 90.2004 756.136 89.8004H756.236L756.536 89.6004C767.605 84.781 778.104 78.7438 787.836 71.6004L788.136 71.5004C789.136 70.7004 789.736 69.5004 789.936 68.4004C791.348 56.3081 791.348 44.0927 789.936 32.0004Z" fill="#0192D9"/>
<path d="M789.936 32.0004V31.6004C789.736 30.5407 789.17 29.585 788.336 28.9004L787.836 28.5004C777.936 21.2309 767.232 15.1241 755.936 10.3004C754.97 9.93111 753.902 9.93111 752.936 10.3004H752.736C741.32 15.2762 730.516 21.5509 720.536 29.0004C719.736 29.7004 719.236 30.6004 719.036 31.7004V32.2004C717.649 44.2272 717.649 56.3736 719.036 68.4004C719.036 69.6004 719.736 70.7004 720.736 71.4004L721.036 71.6004C730.767 78.8022 741.305 84.8431 752.436 89.6004L752.736 89.8004C753.836 90.2004 755.036 90.2004 756.136 89.8004H756.236L756.536 89.6004C767.605 84.781 778.104 78.7438 787.836 71.6004L788.136 71.5004C789.136 70.7004 789.736 69.5004 789.936 68.4004C791.348 56.3081 791.348 44.0927 789.936 32.0004Z" fill="#014384"/>
<g clip-path="url(#clip7_457_658)">
<path d="M747.625 57.75H742.125C741.3 57.75 740.75 57.2 740.75 56.375V50.875C740.75 50.4625 740.887 50.1875 741.162 49.9125L756.288 34.7875C756.837 34.2375 757.663 34.2375 758.212 34.7875L763.713 40.2875C764.263 40.8375 764.263 41.6625 763.713 42.2125L748.587 57.3375C748.312 57.6125 748.037 57.75 747.625 57.75ZM743.5 55H747.075L760.825 41.25L757.25 37.675L743.5 51.425V55ZM766.875 64.625H742.125C741.3 64.625 740.75 64.075 740.75 63.25C740.75 62.425 741.3 61.875 742.125 61.875H766.875C767.7 61.875 768.25 62.425 768.25 63.25C768.25 64.075 767.7 64.625 766.875 64.625Z" fill="white"/>
</g>
</g>
<path d="M1047.53 120.784H1052.63V127.446C1051.95 127.669 1051.25 127.848 1050.53 127.982C1049.8 128.111 1048.98 128.176 1048.06 128.176C1046.78 128.176 1045.7 127.924 1044.81 127.42C1043.92 126.916 1043.24 126.172 1042.78 125.188C1042.31 124.203 1042.08 122.993 1042.08 121.558C1042.08 120.21 1042.34 119.044 1042.85 118.06C1043.38 117.075 1044.13 116.313 1045.13 115.774C1046.13 115.235 1047.35 114.966 1048.8 114.966C1049.48 114.966 1050.15 115.039 1050.81 115.186C1051.47 115.332 1052.07 115.522 1052.61 115.757L1051.71 117.937C1051.31 117.737 1050.86 117.57 1050.36 117.436C1049.86 117.301 1049.33 117.233 1048.78 117.233C1047.99 117.233 1047.3 117.415 1046.71 117.778C1046.13 118.142 1045.68 118.651 1045.36 119.308C1045.04 119.958 1044.88 120.726 1044.88 121.61C1044.88 122.448 1045 123.192 1045.23 123.843C1045.46 124.487 1045.82 124.994 1046.31 125.363C1046.8 125.727 1047.44 125.908 1048.23 125.908C1048.62 125.908 1048.95 125.891 1049.21 125.855C1049.48 125.814 1049.73 125.773 1049.96 125.732V123.052H1047.53V120.784ZM1059.54 117.989C1060.44 117.989 1061.23 118.165 1061.88 118.517C1062.54 118.862 1063.05 119.366 1063.4 120.028C1063.76 120.69 1063.94 121.499 1063.94 122.454V123.755H1057.6C1057.63 124.511 1057.86 125.105 1058.28 125.539C1058.71 125.967 1059.3 126.181 1060.05 126.181C1060.68 126.181 1061.26 126.116 1061.78 125.987C1062.3 125.858 1062.83 125.665 1063.39 125.407V127.481C1062.9 127.722 1062.39 127.897 1061.86 128.009C1061.33 128.12 1060.69 128.176 1059.93 128.176C1058.95 128.176 1058.07 127.994 1057.31 127.631C1056.56 127.268 1055.96 126.714 1055.53 125.97C1055.1 125.226 1054.89 124.288 1054.89 123.157C1054.89 122.009 1055.08 121.054 1055.47 120.292C1055.86 119.524 1056.4 118.95 1057.1 118.569C1057.8 118.183 1058.61 117.989 1059.54 117.989ZM1059.55 119.896C1059.03 119.896 1058.6 120.063 1058.25 120.397C1057.91 120.731 1057.72 121.256 1057.66 121.971H1061.43C1061.42 121.572 1061.35 121.218 1061.21 120.907C1061.07 120.597 1060.87 120.351 1060.59 120.169C1060.32 119.987 1059.98 119.896 1059.55 119.896ZM1070.26 126.04C1070.55 126.04 1070.84 126.011 1071.11 125.952C1071.39 125.894 1071.67 125.82 1071.95 125.732V127.728C1071.66 127.856 1071.3 127.962 1070.87 128.044C1070.45 128.132 1069.99 128.176 1069.49 128.176C1068.9 128.176 1068.37 128.082 1067.9 127.895C1067.44 127.701 1067.07 127.37 1066.8 126.901C1066.54 126.427 1066.41 125.768 1066.41 124.924V120.187H1065.13V119.053L1066.6 118.156L1067.38 116.082H1069.09V118.174H1071.84V120.187H1069.09V124.924C1069.09 125.299 1069.2 125.58 1069.41 125.768C1069.62 125.949 1069.91 126.04 1070.26 126.04ZM1082.83 120.441L1085.51 115.15H1088.44L1084.18 122.999V128H1081.47V123.087L1077.21 115.15H1080.16L1082.83 120.441ZM1098.78 123.069C1098.78 123.89 1098.67 124.616 1098.45 125.249C1098.23 125.882 1097.91 126.418 1097.49 126.857C1097.07 127.291 1096.57 127.619 1095.98 127.842C1095.39 128.064 1094.73 128.176 1093.99 128.176C1093.3 128.176 1092.66 128.064 1092.08 127.842C1091.51 127.619 1091.01 127.291 1090.58 126.857C1090.16 126.418 1089.83 125.882 1089.59 125.249C1089.37 124.616 1089.25 123.89 1089.25 123.069C1089.25 121.979 1089.45 121.057 1089.83 120.301C1090.22 119.545 1090.77 118.971 1091.48 118.578C1092.2 118.186 1093.05 117.989 1094.04 117.989C1094.96 117.989 1095.78 118.186 1096.49 118.578C1097.2 118.971 1097.76 119.545 1098.16 120.301C1098.57 121.057 1098.78 121.979 1098.78 123.069ZM1091.99 123.069C1091.99 123.714 1092.06 124.256 1092.2 124.695C1092.34 125.135 1092.56 125.466 1092.86 125.688C1093.15 125.911 1093.54 126.022 1094.02 126.022C1094.5 126.022 1094.88 125.911 1095.18 125.688C1095.47 125.466 1095.69 125.135 1095.83 124.695C1095.97 124.256 1096.04 123.714 1096.04 123.069C1096.04 122.419 1095.97 121.88 1095.83 121.452C1095.69 121.019 1095.47 120.693 1095.18 120.477C1094.88 120.26 1094.49 120.151 1094.01 120.151C1093.3 120.151 1092.78 120.395 1092.46 120.881C1092.14 121.367 1091.99 122.097 1091.99 123.069ZM1110.01 118.174V128H1107.96L1107.59 126.743H1107.45C1107.24 127.077 1106.98 127.35 1106.66 127.561C1106.35 127.771 1106 127.927 1105.62 128.026C1105.24 128.126 1104.84 128.176 1104.43 128.176C1103.73 128.176 1103.12 128.053 1102.59 127.807C1102.07 127.555 1101.67 127.165 1101.37 126.638C1101.08 126.11 1100.94 125.425 1100.94 124.581V118.174H1103.62V123.913C1103.62 124.616 1103.75 125.146 1104 125.504C1104.25 125.861 1104.65 126.04 1105.2 126.04C1105.75 126.04 1106.18 125.917 1106.49 125.671C1106.8 125.419 1107.01 125.053 1107.14 124.572C1107.27 124.086 1107.33 123.494 1107.33 122.797V118.174H1110.01ZM1118.31 117.989C1118.44 117.989 1118.6 117.998 1118.77 118.016C1118.96 118.027 1119.1 118.045 1119.21 118.068L1119.01 120.582C1118.92 120.553 1118.8 120.532 1118.63 120.521C1118.48 120.503 1118.34 120.494 1118.22 120.494C1117.88 120.494 1117.54 120.538 1117.21 120.626C1116.89 120.714 1116.6 120.857 1116.34 121.057C1116.08 121.25 1115.88 121.508 1115.72 121.83C1115.58 122.146 1115.5 122.536 1115.5 122.999V128H1112.82V118.174H1114.85L1115.25 119.826H1115.38C1115.58 119.492 1115.82 119.188 1116.1 118.912C1116.4 118.631 1116.73 118.408 1117.1 118.244C1117.47 118.074 1117.88 117.989 1118.31 117.989ZM1136.55 121.452C1136.55 122.899 1136.27 124.109 1135.71 125.082C1135.16 126.049 1134.36 126.778 1133.31 127.271C1132.26 127.757 1131 128 1129.52 128H1125.88V115.15H1129.92C1131.27 115.15 1132.44 115.391 1133.43 115.871C1134.42 116.346 1135.18 117.052 1135.73 117.989C1136.27 118.921 1136.55 120.075 1136.55 121.452ZM1133.72 121.522C1133.72 120.573 1133.58 119.794 1133.29 119.185C1133.02 118.569 1132.61 118.115 1132.06 117.822C1131.52 117.529 1130.86 117.383 1130.06 117.383H1128.61V125.75H1129.78C1131.11 125.75 1132.1 125.396 1132.74 124.687C1133.39 123.978 1133.72 122.923 1133.72 121.522ZM1144.48 117.989C1144.62 117.989 1144.77 117.998 1144.95 118.016C1145.13 118.027 1145.28 118.045 1145.39 118.068L1145.19 120.582C1145.1 120.553 1144.97 120.532 1144.81 120.521C1144.65 120.503 1144.51 120.494 1144.39 120.494C1144.05 120.494 1143.71 120.538 1143.38 120.626C1143.06 120.714 1142.77 120.857 1142.51 121.057C1142.26 121.25 1142.05 121.508 1141.9 121.83C1141.75 122.146 1141.68 122.536 1141.68 122.999V128H1139V118.174H1141.03L1141.42 119.826H1141.56C1141.75 119.492 1141.99 119.188 1142.28 118.912C1142.57 118.631 1142.9 118.408 1143.27 118.244C1143.64 118.074 1144.05 117.989 1144.48 117.989ZM1151.22 117.989C1152.13 117.989 1152.91 118.165 1153.57 118.517C1154.23 118.862 1154.73 119.366 1155.09 120.028C1155.45 120.69 1155.63 121.499 1155.63 122.454V123.755H1149.29C1149.32 124.511 1149.54 125.105 1149.97 125.539C1150.39 125.967 1150.99 126.181 1151.74 126.181C1152.37 126.181 1152.94 126.116 1153.46 125.987C1153.99 125.858 1154.52 125.665 1155.07 125.407V127.481C1154.59 127.722 1154.08 127.897 1153.54 128.009C1153.02 128.12 1152.38 128.176 1151.62 128.176C1150.63 128.176 1149.76 127.994 1149 127.631C1148.24 127.268 1147.65 126.714 1147.22 125.97C1146.79 125.226 1146.57 124.288 1146.57 123.157C1146.57 122.009 1146.77 121.054 1147.15 120.292C1147.55 119.524 1148.09 118.95 1148.79 118.569C1149.49 118.183 1150.3 117.989 1151.22 117.989ZM1151.24 119.896C1150.72 119.896 1150.29 120.063 1149.94 120.397C1149.6 120.731 1149.4 121.256 1149.35 121.971H1153.11C1153.11 121.572 1153.03 121.218 1152.89 120.907C1152.76 120.597 1152.55 120.351 1152.28 120.169C1152.01 119.987 1151.66 119.896 1151.24 119.896ZM1161.83 117.972C1163.15 117.972 1164.16 118.259 1164.86 118.833C1165.57 119.407 1165.92 120.28 1165.92 121.452V128H1164.05L1163.53 126.664H1163.46C1163.18 127.016 1162.89 127.303 1162.6 127.525C1162.3 127.748 1161.97 127.912 1161.59 128.018C1161.21 128.123 1160.74 128.176 1160.2 128.176C1159.62 128.176 1159.1 128.064 1158.63 127.842C1158.18 127.619 1157.82 127.279 1157.55 126.822C1157.29 126.359 1157.16 125.773 1157.16 125.064C1157.16 124.021 1157.52 123.254 1158.25 122.762C1158.99 122.264 1160.09 121.988 1161.55 121.936L1163.26 121.883V121.452C1163.26 120.937 1163.12 120.559 1162.85 120.318C1162.58 120.078 1162.21 119.958 1161.73 119.958C1161.25 119.958 1160.79 120.025 1160.33 120.16C1159.87 120.295 1159.42 120.465 1158.96 120.67L1158.07 118.859C1158.59 118.584 1159.17 118.367 1159.82 118.209C1160.47 118.051 1161.14 117.972 1161.83 117.972ZM1163.26 123.447L1162.22 123.482C1161.35 123.506 1160.75 123.661 1160.41 123.948C1160.07 124.235 1159.91 124.613 1159.91 125.082C1159.91 125.492 1160.03 125.785 1160.27 125.961C1160.51 126.131 1160.82 126.216 1161.21 126.216C1161.78 126.216 1162.27 126.046 1162.66 125.706C1163.06 125.366 1163.26 124.883 1163.26 124.256V123.447ZM1180.23 117.989C1181.34 117.989 1182.18 118.276 1182.75 118.851C1183.32 119.419 1183.61 120.333 1183.61 121.593V128H1180.92V122.261C1180.92 121.558 1180.8 121.027 1180.56 120.67C1180.32 120.312 1179.95 120.134 1179.45 120.134C1178.74 120.134 1178.23 120.389 1177.93 120.898C1177.63 121.402 1177.49 122.126 1177.49 123.069V128H1174.8V122.261C1174.8 121.792 1174.75 121.399 1174.65 121.083C1174.54 120.767 1174.38 120.529 1174.16 120.371C1173.95 120.213 1173.67 120.134 1173.33 120.134C1172.83 120.134 1172.44 120.26 1172.15 120.512C1171.87 120.758 1171.67 121.124 1171.54 121.61C1171.43 122.091 1171.37 122.68 1171.37 123.377V128H1168.69V118.174H1170.74L1171.1 119.431H1171.25C1171.44 119.091 1171.69 118.815 1171.99 118.604C1172.3 118.394 1172.63 118.238 1172.99 118.139C1173.36 118.039 1173.73 117.989 1174.1 117.989C1174.82 117.989 1175.43 118.106 1175.93 118.341C1176.43 118.575 1176.82 118.938 1177.09 119.431H1177.33C1177.62 118.927 1178.03 118.561 1178.57 118.332C1179.11 118.104 1179.66 117.989 1180.23 117.989ZM1099.03 150.779C1098.67 150.779 1098.37 150.759 1098.1 150.718C1097.83 150.683 1097.6 150.639 1097.42 150.586V148.318C1097.6 148.359 1097.81 148.397 1098.02 148.433C1098.23 148.474 1098.46 148.494 1098.7 148.494C1099.02 148.494 1099.3 148.433 1099.55 148.31C1099.8 148.192 1100 147.967 1100.15 147.633C1100.3 147.299 1100.37 146.818 1100.37 146.191V134.15H1103.09V146.174C1103.09 147.275 1102.92 148.163 1102.58 148.837C1102.24 149.517 1101.76 150.009 1101.14 150.313C1100.53 150.624 1099.83 150.779 1099.03 150.779ZM1115.05 142.069C1115.05 142.89 1114.94 143.616 1114.71 144.249C1114.5 144.882 1114.18 145.418 1113.76 145.857C1113.34 146.291 1112.84 146.619 1112.24 146.842C1111.66 147.064 1111 147.176 1110.26 147.176C1109.57 147.176 1108.93 147.064 1108.35 146.842C1107.78 146.619 1107.28 146.291 1106.85 145.857C1106.43 145.418 1106.1 144.882 1105.86 144.249C1105.63 143.616 1105.52 142.89 1105.52 142.069C1105.52 140.979 1105.71 140.057 1106.1 139.301C1106.49 138.545 1107.04 137.971 1107.75 137.578C1108.47 137.186 1109.32 136.989 1110.31 136.989C1111.23 136.989 1112.04 137.186 1112.75 137.578C1113.47 137.971 1114.03 138.545 1114.43 139.301C1114.84 140.057 1115.05 140.979 1115.05 142.069ZM1108.25 142.069C1108.25 142.714 1108.32 143.256 1108.46 143.695C1108.61 144.135 1108.83 144.466 1109.12 144.688C1109.42 144.911 1109.81 145.022 1110.29 145.022C1110.77 145.022 1111.15 144.911 1111.44 144.688C1111.74 144.466 1111.96 144.135 1112.09 143.695C1112.24 143.256 1112.31 142.714 1112.31 142.069C1112.31 141.419 1112.24 140.88 1112.09 140.452C1111.96 140.019 1111.74 139.693 1111.44 139.477C1111.15 139.26 1110.76 139.151 1110.28 139.151C1109.57 139.151 1109.05 139.395 1108.73 139.881C1108.41 140.367 1108.25 141.097 1108.25 142.069ZM1119.94 133.324V136.506C1119.94 136.875 1119.93 137.241 1119.91 137.604C1119.89 137.968 1119.87 138.249 1119.84 138.448H1119.94C1120.2 138.044 1120.55 137.701 1121 137.42C1121.44 137.133 1122.02 136.989 1122.73 136.989C1123.83 136.989 1124.72 137.42 1125.41 138.281C1126.1 139.143 1126.44 140.405 1126.44 142.069C1126.44 143.188 1126.28 144.129 1125.96 144.891C1125.65 145.646 1125.21 146.218 1124.64 146.604C1124.07 146.985 1123.41 147.176 1122.66 147.176C1121.94 147.176 1121.37 147.047 1120.95 146.789C1120.54 146.531 1120.2 146.241 1119.94 145.919H1119.76L1119.31 147H1117.26V133.324H1119.94ZM1121.87 139.134C1121.4 139.134 1121.03 139.23 1120.75 139.424C1120.48 139.617 1120.27 139.907 1120.15 140.294C1120.02 140.681 1119.96 141.17 1119.94 141.762V142.052C1119.94 143.007 1120.08 143.739 1120.37 144.249C1120.65 144.753 1121.16 145.005 1121.9 145.005C1122.45 145.005 1122.89 144.75 1123.21 144.24C1123.54 143.73 1123.71 142.995 1123.71 142.034C1123.71 141.073 1123.54 140.35 1123.21 139.863C1122.88 139.377 1122.44 139.134 1121.87 139.134Z" fill="#475467"/>
<g clip-path="url(#clip8_457_658)">
<path d="M1145.47 32.0004V31.6004C1145.27 30.5407 1144.7 29.585 1143.87 28.9004L1143.37 28.5004C1133.47 21.2309 1122.76 15.1241 1111.47 10.3004C1110.5 9.93111 1109.43 9.93111 1108.47 10.3004H1108.27C1096.85 15.2762 1086.05 21.5509 1076.07 29.0004C1075.27 29.7004 1074.77 30.6004 1074.57 31.7004V32.2004C1073.18 44.2272 1073.18 56.3736 1074.57 68.4004C1074.57 69.6004 1075.27 70.7004 1076.27 71.4004L1076.57 71.6004C1086.3 78.8022 1096.84 84.8431 1107.97 89.6004L1108.27 89.8004C1109.37 90.2004 1110.57 90.2004 1111.67 89.8004H1111.77L1112.07 89.6004C1123.14 84.781 1133.63 78.7438 1143.37 71.6004L1143.67 71.5004C1144.67 70.7004 1145.27 69.5004 1145.47 68.4004C1146.88 56.3081 1146.88 44.0927 1145.47 32.0004Z" fill="white"/>
<path d="M1145.47 32.0004V31.6004C1145.27 30.5407 1144.7 29.585 1143.87 28.9004L1143.37 28.5004C1133.47 21.2309 1122.76 15.1241 1111.47 10.3004C1110.5 9.93111 1109.43 9.93111 1108.47 10.3004H1108.27C1096.85 15.2762 1086.05 21.5509 1076.07 29.0004C1075.27 29.7004 1074.77 30.6004 1074.57 31.7004V32.2004C1073.18 44.2272 1073.18 56.3736 1074.57 68.4004C1074.57 69.6004 1075.27 70.7004 1076.27 71.4004L1076.57 71.6004C1086.3 78.8022 1096.84 84.8431 1107.97 89.6004L1108.27 89.8004C1109.37 90.2004 1110.57 90.2004 1111.67 89.8004H1111.77L1112.07 89.6004C1123.14 84.781 1133.63 78.7438 1143.37 71.6004L1143.67 71.5004C1144.67 70.7004 1145.27 69.5004 1145.47 68.4004C1146.88 56.3081 1146.88 44.0927 1145.47 32.0004Z" fill="#32C766"/>
</g>
<g clip-path="url(#clip9_457_658)">
<path d="M1118.63 63.2812H1098.97C1096.63 63.2812 1094.84 61.4937 1094.84 59.1562V49.5312C1094.84 47.1938 1096.63 45.4062 1098.97 45.4062H1102.27L1107.36 33.8563C1107.49 33.3063 1108.04 33.0312 1108.59 33.0312C1111.62 33.0312 1114.09 35.5062 1114.09 38.5312V42.6562H1121.24C1122.34 42.7937 1123.31 43.3438 1123.99 44.3062C1124.68 45.1312 1124.96 46.2312 1124.68 47.3312L1122.76 59.7062C1122.34 61.7687 1120.69 63.2812 1118.63 63.2812ZM1104.47 60.5312H1118.63C1119.32 60.5312 1119.87 59.9813 1120.01 59.4313L1121.93 47.0562C1121.93 46.6438 1121.93 46.3687 1121.66 46.0938C1121.38 45.8188 1121.11 45.5438 1120.69 45.5438H1112.72C1111.89 45.5438 1111.34 44.9938 1111.34 44.1688V38.5312C1111.34 37.2937 1110.52 36.3312 1109.42 35.9187L1104.47 47.0562V60.5312ZM1098.97 48.1562C1098.14 48.1562 1097.59 48.7063 1097.59 49.5312V59.1562C1097.59 59.9813 1098.14 60.5312 1098.97 60.5312H1101.72V48.1562H1098.97Z" fill="white"/>
</g>
<defs>
<linearGradient id="paint0_linear_457_658" x1="24.7108" y1="10.0234" x2="122.006" y2="23.9794" gradientUnits="userSpaceOnUse">
<stop stop-color="#014384"/>
<stop offset="1" stop-color="#0192D9"/>
</linearGradient>
<linearGradient id="paint1_linear_457_658" x1="24.7108" y1="10.0234" x2="122.006" y2="23.9794" gradientUnits="userSpaceOnUse">
<stop stop-color="#014384"/>
<stop offset="1" stop-color="#0192D9"/>
</linearGradient>
<clipPath id="clip0_457_658">
<rect width="16" height="16" fill="white" transform="translate(235.328 45)"/>
</clipPath>
<clipPath id="clip1_457_658">
<rect width="16" height="16" fill="white" transform="translate(581.984 45)"/>
</clipPath>
<clipPath id="clip2_457_658">
<rect width="16" height="16" fill="white" transform="translate(928.641 45)"/>
</clipPath>
<clipPath id="clip3_457_658">
<rect width="105" height="112" fill="white" transform="translate(17.1094)"/>
</clipPath>
<clipPath id="clip4_457_658">
<rect width="33" height="33" fill="white" transform="translate(53.1094 31.6562)"/>
</clipPath>
<clipPath id="clip5_457_658">
<rect width="105" height="112" fill="white" transform="translate(362.656)"/>
</clipPath>
<clipPath id="clip6_457_658">
<rect width="105" height="112" fill="white" transform="translate(701.938)"/>
</clipPath>
<clipPath id="clip7_457_658">
<rect width="33" height="33" fill="white" transform="translate(738 33)"/>
</clipPath>
<clipPath id="clip8_457_658">
<rect width="105" height="112" fill="white" transform="translate(1057.47)"/>
</clipPath>
<clipPath id="clip9_457_658">
<rect width="33" height="33" fill="white" transform="translate(1093.47 31.6562)"/>
</clipPath>
</defs>
</svg>
