<svg width="136" height="40" viewBox="0 0 136 40" fill="none" xmlns="http://www.w3.org/2000/svg">
<path d="M68.887 21.7509C66.535 21.7509 64.618 23.5399 64.618 26.0039C64.618 28.4529 66.535 30.2569 68.887 30.2569C71.24 30.2569 73.157 28.4529 73.157 26.0039C73.156 23.5399 71.239 21.7509 68.887 21.7509ZM68.887 28.5829C67.598 28.5829 66.487 27.5199 66.487 26.0049C66.487 24.4739 67.599 23.4269 68.887 23.4269C70.176 23.4269 71.287 24.4739 71.287 26.0049C71.287 27.5189 70.176 28.5829 68.887 28.5829ZM59.573 21.7509C57.221 21.7509 55.304 23.5399 55.304 26.0039C55.304 28.4529 57.221 30.2569 59.573 30.2569C61.926 30.2569 63.843 28.4529 63.843 26.0039C63.843 23.5399 61.926 21.7509 59.573 21.7509ZM59.573 28.5829C58.284 28.5829 57.173 27.5199 57.173 26.0049C57.173 24.4739 58.285 23.4269 59.573 23.4269C60.862 23.4269 61.973 24.4739 61.973 26.0049C61.974 27.5189 60.862 28.5829 59.573 28.5829ZM48.495 23.0569V24.8609H52.813C52.684 25.8759 52.346 26.6169 51.83 27.1319C51.202 27.7599 50.219 28.4529 48.495 28.4529C45.837 28.4529 43.759 26.3099 43.759 23.6519C43.759 20.9939 45.837 18.8509 48.495 18.8509C49.929 18.8509 50.976 19.4149 51.749 20.1399L53.022 18.8669C51.942 17.8359 50.509 17.0469 48.495 17.0469C44.854 17.0469 41.793 20.0109 41.793 23.6519C41.793 27.2929 44.854 30.2569 48.495 30.2569C50.46 30.2569 51.943 29.6119 53.102 28.4039C54.294 27.2119 54.665 25.5359 54.665 24.1829C54.665 23.7649 54.633 23.3779 54.568 23.0559H48.495V23.0569ZM93.803 24.4579C93.449 23.5079 92.369 21.7509 90.162 21.7509C87.971 21.7509 86.15 23.4749 86.15 26.0039C86.15 28.3879 87.955 30.2569 90.371 30.2569C92.32 30.2569 93.448 29.0649 93.916 28.3719L92.466 27.4049C91.983 28.1139 91.322 28.5809 90.371 28.5809C89.421 28.5809 88.744 28.1459 88.309 27.2919L93.996 24.9399L93.803 24.4579ZM88.003 25.8759C87.955 24.2319 89.276 23.3949 90.227 23.3949C90.968 23.3949 91.596 23.7659 91.806 24.2969L88.003 25.8759ZM83.38 29.9999H85.248V17.4989H83.38V29.9999ZM80.318 22.7019H80.254C79.835 22.2019 79.029 21.7509 78.015 21.7509C75.888 21.7509 73.939 23.6199 73.939 26.0209C73.939 28.4049 75.888 30.2579 78.015 30.2579C79.03 30.2579 79.835 29.8069 80.254 29.2919H80.318V29.9039C80.318 31.5309 79.448 32.4009 78.047 32.4009C76.903 32.4009 76.194 31.5799 75.904 30.8869L74.277 31.5639C74.744 32.6909 75.984 34.0769 78.047 34.0769C80.238 34.0769 82.091 32.7879 82.091 29.6459V22.0099H80.319V22.7019H80.318ZM78.176 28.5829C76.887 28.5829 75.808 27.5029 75.808 26.0209C75.808 24.5219 76.887 23.4269 78.176 23.4269C79.448 23.4269 80.447 24.5219 80.447 26.0209C80.447 27.5029 79.448 28.5829 78.176 28.5829ZM102.557 17.4989H98.086V29.9999H99.951V25.2639H102.556C104.624 25.2639 106.658 23.7669 106.658 21.3819C106.658 18.9969 104.625 17.4989 102.557 17.4989ZM102.605 23.5239H99.951V19.2389H102.605C104 19.2389 104.792 20.3939 104.792 21.3819C104.792 22.3499 104 23.5239 102.605 23.5239ZM114.137 21.7289C112.786 21.7289 111.387 22.3239 110.808 23.6429L112.464 24.3339C112.818 23.6429 113.478 23.4169 114.169 23.4169C115.134 23.4169 116.115 23.9959 116.131 25.0249V25.1539C115.793 24.9609 115.069 24.6719 114.185 24.6719C112.4 24.6719 110.582 25.6529 110.582 27.4859C110.582 29.1589 112.046 30.2359 113.686 30.2359C114.94 30.2359 115.632 29.6729 116.066 29.0129H116.13V29.9779H117.932V25.1849C117.933 22.9669 116.275 21.7289 114.137 21.7289ZM113.911 28.5799C113.301 28.5799 112.448 28.2739 112.448 27.5179C112.448 26.5529 113.51 26.1829 114.427 26.1829C115.246 26.1829 115.633 26.3599 116.131 26.6009C115.986 27.7599 114.989 28.5799 113.911 28.5799ZM124.494 22.0019L122.355 27.4219H122.291L120.071 22.0019H118.061L121.39 29.5769L119.492 33.7909H121.438L126.569 22.0019H124.494ZM107.688 29.9999H109.553V17.4989H107.688V29.9999Z" fill="white"/>
<path d="M48.1676 10.2412C48.1676 11.0792 47.9196 11.7462 47.4226 12.2442C46.8586 12.8362 46.1226 13.1322 45.2186 13.1322C44.3526 13.1322 43.6156 12.8322 43.0106 12.2322C42.4046 11.6312 42.1016 10.8872 42.1016 9.99923C42.1016 9.11023 42.4046 8.36623 43.0106 7.76623C43.6156 7.16523 44.3526 6.86524 45.2186 6.86524C45.6486 6.86524 46.0596 6.94923 46.4496 7.11623C46.8406 7.28423 47.1536 7.50723 47.3876 7.78623L46.8606 8.31423C46.4636 7.83923 45.9166 7.60223 45.2176 7.60223C44.5856 7.60223 44.0396 7.82424 43.5786 8.26824C43.1176 8.71224 42.8876 9.28923 42.8876 9.99823C42.8876 10.7072 43.1176 11.2842 43.5786 11.7282C44.0396 12.1722 44.5856 12.3942 45.2176 12.3942C45.8876 12.3942 46.4466 12.1712 46.8936 11.7242C47.1836 11.4332 47.3516 11.0282 47.3966 10.5092H45.2176V9.78824H48.1246C48.1546 9.94524 48.1676 10.0962 48.1676 10.2412Z" fill="white"/>
<path d="M52.7777 7.73529H50.0457V9.63729H52.5097V10.3583H50.0457V12.2603H52.7777V12.9983H49.2747V6.99829H52.7777V7.73529Z" fill="white"/>
<path d="M56.0285 12.9983H55.2575V7.73529H53.5815V6.99829H57.7045V7.73529H56.0285V12.9983Z" fill="white"/>
<path d="M60.6875 12.9983V6.99829H61.4585V12.9983H60.6875Z" fill="white"/>
<path d="M64.8777 12.9983H64.1067V7.73529H62.4307V6.99829H66.5537V7.73529H64.8777V12.9983Z" fill="white"/>
<path d="M74.3584 12.2233C73.7684 12.8293 73.0354 13.1323 72.1584 13.1323C71.2814 13.1323 70.5484 12.8293 69.9594 12.2233C69.3694 11.6173 69.0754 10.8753 69.0754 9.99828C69.0754 9.12128 69.3694 8.37928 69.9594 7.77328C70.5484 7.16728 71.2814 6.86328 72.1584 6.86328C73.0304 6.86328 73.7624 7.16828 74.3544 7.77728C74.9464 8.38628 75.2424 9.12628 75.2424 9.99828C75.2424 10.8753 74.9474 11.6173 74.3584 12.2233ZM70.5284 11.7203C70.9724 12.1703 71.5154 12.3943 72.1584 12.3943C72.8014 12.3943 73.3454 12.1693 73.7884 11.7203C74.2324 11.2703 74.4554 10.6963 74.4554 9.99828C74.4554 9.30028 74.2324 8.72628 73.7884 8.27628C73.3454 7.82628 72.8014 7.60228 72.1584 7.60228C71.5154 7.60228 70.9724 7.82728 70.5284 8.27628C70.0854 8.72628 69.8624 9.30028 69.8624 9.99828C69.8624 10.6963 70.0854 11.2703 70.5284 11.7203Z" fill="white"/>
<path d="M76.3245 12.9983V6.99829H77.2625L80.1785 11.6653H80.2115L80.1785 10.5093V6.99829H80.9495V12.9983H80.1445L77.0935 8.10429H77.0605L77.0935 9.26029V12.9983H76.3245Z" fill="white"/>
<path d="M48.1676 10.2412C48.1676 11.0792 47.9196 11.7462 47.4226 12.2442C46.8586 12.8362 46.1226 13.1322 45.2186 13.1322C44.3526 13.1322 43.6156 12.8322 43.0106 12.2322C42.4046 11.6312 42.1016 10.8872 42.1016 9.99923C42.1016 9.11023 42.4046 8.36623 43.0106 7.76623C43.6156 7.16523 44.3526 6.86524 45.2186 6.86524C45.6486 6.86524 46.0596 6.94923 46.4496 7.11623C46.8406 7.28423 47.1536 7.50723 47.3876 7.78623L46.8606 8.31423C46.4636 7.83923 45.9166 7.60223 45.2176 7.60223C44.5856 7.60223 44.0396 7.82424 43.5786 8.26824C43.1176 8.71224 42.8876 9.28923 42.8876 9.99823C42.8876 10.7072 43.1176 11.2842 43.5786 11.7282C44.0396 12.1722 44.5856 12.3942 45.2176 12.3942C45.8876 12.3942 46.4466 12.1712 46.8936 11.7242C47.1836 11.4332 47.3516 11.0282 47.3966 10.5092H45.2176V9.78824H48.1246C48.1546 9.94524 48.1676 10.0962 48.1676 10.2412Z" stroke="white" stroke-width="0.2" stroke-miterlimit="10"/>
<path d="M52.7777 7.73529H50.0457V9.63729H52.5097V10.3583H50.0457V12.2603H52.7777V12.9983H49.2747V6.99829H52.7777V7.73529Z" stroke="white" stroke-width="0.2" stroke-miterlimit="10"/>
<path d="M56.0285 12.9983H55.2575V7.73529H53.5815V6.99829H57.7045V7.73529H56.0285V12.9983Z" stroke="white" stroke-width="0.2" stroke-miterlimit="10"/>
<path d="M60.6875 12.9983V6.99829H61.4585V12.9983H60.6875Z" stroke="white" stroke-width="0.2" stroke-miterlimit="10"/>
<path d="M64.8777 12.9983H64.1067V7.73529H62.4307V6.99829H66.5537V7.73529H64.8777V12.9983Z" stroke="white" stroke-width="0.2" stroke-miterlimit="10"/>
<path d="M74.3584 12.2233C73.7684 12.8293 73.0354 13.1323 72.1584 13.1323C71.2814 13.1323 70.5484 12.8293 69.9594 12.2233C69.3694 11.6173 69.0754 10.8753 69.0754 9.99828C69.0754 9.12128 69.3694 8.37928 69.9594 7.77328C70.5484 7.16728 71.2814 6.86328 72.1584 6.86328C73.0304 6.86328 73.7624 7.16828 74.3544 7.77728C74.9464 8.38628 75.2424 9.12628 75.2424 9.99828C75.2424 10.8753 74.9474 11.6173 74.3584 12.2233ZM70.5284 11.7203C70.9724 12.1703 71.5154 12.3943 72.1584 12.3943C72.8014 12.3943 73.3454 12.1693 73.7884 11.7203C74.2324 11.2703 74.4554 10.6963 74.4554 9.99828C74.4554 9.30028 74.2324 8.72628 73.7884 8.27628C73.3454 7.82628 72.8014 7.60228 72.1584 7.60228C71.5154 7.60228 70.9724 7.82728 70.5284 8.27628C70.0854 8.72628 69.8624 9.30028 69.8624 9.99828C69.8624 10.6963 70.0854 11.2703 70.5284 11.7203Z" stroke="white" stroke-width="0.2" stroke-miterlimit="10"/>
<path d="M76.3245 12.9983V6.99829H77.2625L80.1785 11.6653H80.2115L80.1785 10.5093V6.99829H80.9495V12.9983H80.1445L77.0935 8.10429H77.0605L77.0935 9.26029V12.9983H76.3245Z" stroke="white" stroke-width="0.2" stroke-miterlimit="10"/>
<path fill-rule="evenodd" clip-rule="evenodd" d="M10.906 7.96617C10.7879 8.23367 10.7227 8.56144 10.7227 8.94269V31.0587C10.7227 31.4408 10.788 31.7686 10.9062 32.036L22.9402 20.0003L10.906 7.96617ZM11.6012 32.7552C12.0473 32.9461 12.6292 32.8855 13.2637 32.5257L27.4208 24.4809L23.6473 20.7074L11.6012 32.7552ZM28.3232 23.9691L32.7647 21.4457C34.1616 20.6507 34.1616 19.3517 32.7647 18.5577L28.3212 16.0328L24.3543 20.0003L28.3232 23.9691ZM27.4194 15.5204L13.2637 7.4767C12.6291 7.11612 12.0472 7.05596 11.6012 7.2471L23.6472 19.2932L27.4194 15.5204Z" fill="white"/>
<rect x="1.25" y="0.5" width="134" height="39" rx="4.5" stroke="white"/>
</svg>
